<?xml version="1.0" standalone="no"?>
<!DOCTYPE svg PUBLIC "-//W3C//DTD SVG 1.1//EN" "http://www.w3.org/Graphics/SVG/1.1/DTD/svg11.dtd" >
<svg xmlns="http://www.w3.org/2000/svg" xmlns:xlink="http://www.w3.org/1999/xlink" version="1.1">
<metadata>
Created by FontForge 20170731 at Thu Sep 23 18:55:16 2021
 By Aleksey,,,
</metadata>
<defs>
<font id="YuGo-Medium-AlphaNum" horiz-adv-x="2048" vert-adv-y="2048" >
  <font-face 
    font-family="YuGo-Medium-AlphaNum"
    font-weight="500"
    font-stretch="normal"
    units-per-em="2048"
    panose-1="2 0 6 3 0 0 0 0 0 0"
    ascent="1638"
    descent="-410"
    bbox="23 -236 2003 1778"
    underline-thickness="102"
    underline-position="-307"
    unicode-range="U+2150-1F189"
  />
<missing-glyph horiz-adv-x="748" 
d="M68 0v1365h544v-1365h-544zM136 68h408v1229h-408v-1229z" />
    <glyph glyph-name=".notdef" horiz-adv-x="748" 
d="M68 0v1365h544v-1365h-544zM136 68h408v1229h-408v-1229z" />
    <glyph glyph-name=".null" horiz-adv-x="0" vert-adv-y="0" 
 />
    <glyph glyph-name="nonmarkingreturn" horiz-adv-x="682" 
 />
    <glyph glyph-name="uni2460" unicode="&#x2460;" 
d="M1130 1386v-1077h234v-121h-629v121h248v920q-95 -61 -248 -119l-24 129q161 57 295 147h124zM1024 1755q199 0 379.5 -77.5t311.5 -208.5t208.5 -311.5t77.5 -379.5t-77.5 -379.5t-208.5 -311.5t-311.5 -208.5t-379.5 -77.5t-379.5 77.5t-311.5 208.5t-208.5 311.5
t-77.5 379.5t77.5 379.5t208.5 311.5t311.5 208.5t379.5 77.5zM1024 1688q-184 0 -352.5 -72.5t-290 -194.5t-194 -290.5t-72.5 -352.5t72.5 -352.5t194 -290t290 -194t352.5 -72.5t352.5 72.5t290 194t194 290t72.5 352.5t-72.5 352.5t-194 290.5t-290 194.5t-352.5 72.5z
" />
    <glyph glyph-name="uni2461" unicode="&#x2461;" 
d="M799 1040l-148 35q27 156 126.5 239t252.5 83q159 0 260 -84.5t101 -229.5q0 -103 -54.5 -183.5t-210.5 -217.5q-143 -123 -214.5 -201.5t-114.5 -165.5h596v-125h-754v113q57 120 143.5 225t229.5 228q134 122 177.5 186t43.5 141q0 89 -55 140t-148 51
q-99 0 -159 -60.5t-72 -173.5zM1024 1755q199 0 379.5 -77.5t311.5 -208.5t208.5 -311.5t77.5 -379.5t-77.5 -379.5t-208.5 -311.5t-311.5 -208.5t-379.5 -77.5t-379.5 77.5t-311.5 208.5t-208.5 311.5t-77.5 379.5t77.5 379.5t208.5 311.5t311.5 208.5t379.5 77.5z
M1024 1688q-184 0 -352.5 -72.5t-290 -194.5t-194 -290.5t-72.5 -352.5t72.5 -352.5t194 -290t290 -194t352.5 -72.5t352.5 72.5t290 194t194 290t72.5 352.5t-72.5 352.5t-194 290.5t-290 194.5t-352.5 72.5z" />
    <glyph glyph-name="uni2462" unicode="&#x2462;" 
d="M786 1104l-139 47q41 117 137 178.5t234 61.5q156 0 255 -81t99 -212q0 -107 -63 -178t-174 -93v-16q129 -25 197.5 -102.5t68.5 -196.5q0 -155 -105.5 -249.5t-275.5 -94.5q-154 0 -251 58t-144 182l145 51q32 -91 92.5 -131.5t159.5 -40.5q100 0 160.5 61t60.5 162
q0 235 -276 235h-99v129h86q132 0 198.5 55t66.5 156q0 90 -55.5 138.5t-147.5 48.5q-175 0 -230 -168zM1024 1755q199 0 379.5 -77.5t311.5 -208.5t208.5 -311.5t77.5 -379.5t-77.5 -379.5t-208.5 -311.5t-311.5 -208.5t-379.5 -77.5t-379.5 77.5t-311.5 208.5
t-208.5 311.5t-77.5 379.5t77.5 379.5t208.5 311.5t311.5 208.5t379.5 77.5zM1024 1688q-184 0 -352.5 -72.5t-290 -194.5t-194 -290.5t-72.5 -352.5t72.5 -352.5t194 -290t290 -194t352.5 -72.5t352.5 72.5t290 194t194 290t72.5 352.5t-72.5 352.5t-194 290.5t-290 194.5
t-352.5 72.5z" />
    <glyph glyph-name="uni2463" unicode="&#x2463;" 
d="M1214 1384v-804h179v-117h-179v-277h-137v277h-502v110l437 811h202zM1077 580v395q0 59 3.5 160.5t4.5 140.5h-22q-15 -32 -40.5 -84.5t-46.5 -95.5t-42 -84l-225 -432h368zM1024 1755q199 0 379.5 -77.5t311.5 -208.5t208.5 -311.5t77.5 -379.5t-77.5 -379.5
t-208.5 -311.5t-311.5 -208.5t-379.5 -77.5t-379.5 77.5t-311.5 208.5t-208.5 311.5t-77.5 379.5t77.5 379.5t208.5 311.5t311.5 208.5t379.5 77.5zM1024 1688q-184 0 -352.5 -72.5t-290 -194.5t-194 -290.5t-72.5 -352.5t72.5 -352.5t194 -290t290 -194t352.5 -72.5
t352.5 72.5t290 194t194 290t72.5 352.5t-72.5 352.5t-194 290.5t-290 194.5t-352.5 72.5z" />
    <glyph glyph-name="uni2464" unicode="&#x2464;" 
d="M1356 1372v-125h-510l-17 -278q-5 -97 -8 -125q35 56 98 88.5t136 32.5q153 0 252.5 -109t99.5 -287q0 -185 -108.5 -296t-276.5 -111q-285 0 -373 237l150 54q50 -168 221 -168q106 0 167.5 75.5t61.5 202.5q0 132 -57.5 204.5t-161.5 72.5q-73 0 -130 -40t-85 -108
l-127 17l35 663h633zM1024 1755q199 0 379.5 -77.5t311.5 -208.5t208.5 -311.5t77.5 -379.5t-77.5 -379.5t-208.5 -311.5t-311.5 -208.5t-379.5 -77.5t-379.5 77.5t-311.5 208.5t-208.5 311.5t-77.5 379.5t77.5 379.5t208.5 311.5t311.5 208.5t379.5 77.5zM1024 1688
q-184 0 -352.5 -72.5t-290 -194.5t-194 -290.5t-72.5 -352.5t72.5 -352.5t194 -290t290 -194t352.5 -72.5t352.5 72.5t290 194t194 290t72.5 352.5t-72.5 352.5t-194 290.5t-290 194.5t-352.5 72.5z" />
    <glyph glyph-name="uni2465" unicode="&#x2465;" 
d="M1382 1221l-139 -64q-46 115 -168 115q-138 0 -202 -119.5t-72 -361.5q100 165 284 165q142 0 236 -105.5t94 -279.5q0 -184 -104.5 -293.5t-266.5 -109.5q-179 0 -286 137.5t-107 419.5q0 338 112 502t316 164q221 0 303 -170zM805 657q0 -185 63.5 -277.5t175.5 -92.5
q103 0 160.5 74t57.5 208q0 128 -55 196.5t-154 68.5q-159 0 -248 -177zM1024 1755q199 0 379.5 -77.5t311.5 -208.5t208.5 -311.5t77.5 -379.5t-77.5 -379.5t-208.5 -311.5t-311.5 -208.5t-379.5 -77.5t-379.5 77.5t-311.5 208.5t-208.5 311.5t-77.5 379.5t77.5 379.5
t208.5 311.5t311.5 208.5t379.5 77.5zM1024 1688q-184 0 -352.5 -72.5t-290 -194.5t-194 -290.5t-72.5 -352.5t72.5 -352.5t194 -290t290 -194t352.5 -72.5t352.5 72.5t290 194t194 290t72.5 352.5t-72.5 352.5t-194 290.5t-290 194.5t-352.5 72.5z" />
    <glyph glyph-name="uni2466" unicode="&#x2466;" 
d="M1401 1339v-114q-168 -256 -254 -506.5t-107 -564.5h-176q28 307 121 554t264 502h-600v129h752zM1024 1755q199 0 379.5 -77.5t311.5 -208.5t208.5 -311.5t77.5 -379.5t-77.5 -379.5t-208.5 -311.5t-311.5 -208.5t-379.5 -77.5t-379.5 77.5t-311.5 208.5t-208.5 311.5
t-77.5 379.5t77.5 379.5t208.5 311.5t311.5 208.5t379.5 77.5zM1024 1688q-184 0 -352.5 -72.5t-290 -194.5t-194 -290.5t-72.5 -352.5t72.5 -352.5t194 -290t290 -194t352.5 -72.5t352.5 72.5t290 194t194 290t72.5 352.5t-72.5 352.5t-194 290.5t-290 194.5t-352.5 72.5z
" />
    <glyph glyph-name="uni2467" unicode="&#x2467;" 
d="M1149 817q150 -63 211 -138t61 -187q0 -149 -109 -236.5t-286 -87.5q-182 0 -288.5 84t-106.5 235q0 103 63 175.5t203 136.5q-125 57 -178 126.5t-53 168.5q0 132 98.5 214.5t261.5 82.5q160 0 260 -80.5t100 -210.5q0 -97 -55 -164t-182 -119zM1014 879l35 -15
q110 46 152 98.5t42 133.5q0 83 -58.5 131.5t-158.5 48.5q-99 0 -156 -48t-57 -132q0 -71 41 -117t160 -100zM1040 731l-41 14q-122 -56 -172.5 -112t-50.5 -139q0 -96 66.5 -152.5t181.5 -56.5q118 0 184 53t66 147q0 78 -50 130.5t-184 115.5zM1024 1755
q199 0 379.5 -77.5t311.5 -208.5t208.5 -311.5t77.5 -379.5t-77.5 -379.5t-208.5 -311.5t-311.5 -208.5t-379.5 -77.5t-379.5 77.5t-311.5 208.5t-208.5 311.5t-77.5 379.5t77.5 379.5t208.5 311.5t311.5 208.5t379.5 77.5zM1024 1688q-184 0 -352.5 -72.5t-290 -194.5
t-194 -290.5t-72.5 -352.5t72.5 -352.5t194 -290t290 -194t352.5 -72.5t352.5 72.5t290 194t194 290t72.5 352.5t-72.5 352.5t-194 290.5t-290 194.5t-352.5 72.5z" />
    <glyph glyph-name="uni2468" unicode="&#x2468;" 
d="M686 334l145 67q53 -114 168 -114q132 0 201.5 112t73.5 367q-92 -162 -283 -162q-147 0 -241.5 104.5t-94.5 280.5q0 178 103.5 290t263.5 112q184 0 288.5 -140.5t104.5 -421.5q0 -661 -420 -661q-222 0 -309 166zM1268 901q-6 371 -240 371q-103 0 -161 -77t-58 -206
q0 -128 56 -196t155 -68q159 0 248 176zM1024 1755q199 0 379.5 -77.5t311.5 -208.5t208.5 -311.5t77.5 -379.5t-77.5 -379.5t-208.5 -311.5t-311.5 -208.5t-379.5 -77.5t-379.5 77.5t-311.5 208.5t-208.5 311.5t-77.5 379.5t77.5 379.5t208.5 311.5t311.5 208.5t379.5 77.5
zM1024 1688q-184 0 -352.5 -72.5t-290 -194.5t-194 -290.5t-72.5 -352.5t72.5 -352.5t194 -290t290 -194t352.5 -72.5t352.5 72.5t290 194t194 290t72.5 352.5t-72.5 352.5t-194 290.5t-290 194.5t-352.5 72.5z" />
    <glyph glyph-name="uni2469" unicode="&#x2469;" 
d="M1024 1755q199 0 379.5 -77.5t311.5 -208.5t208.5 -311.5t77.5 -379.5t-77.5 -379.5t-208.5 -311.5t-311.5 -208.5t-379.5 -77.5t-379.5 77.5t-311.5 208.5t-208.5 311.5t-77.5 379.5t77.5 379.5t208.5 311.5t311.5 208.5t379.5 77.5zM1024 1688q-184 0 -352.5 -72.5
t-290 -194.5t-194 -290.5t-72.5 -352.5t72.5 -352.5t194 -290t290 -194t352.5 -72.5t352.5 72.5t290 194t194 290t72.5 352.5t-72.5 352.5t-194 290.5t-290 194.5t-352.5 72.5zM756 1331v-987h139v-111h-412v111h142v846q-62 -52 -160 -100l-25 114q119 58 205 127h111z
M1282 1341q152 0 223.5 -131t71.5 -428q0 -299 -72 -433t-225 -134q-156 0 -227.5 132.5t-71.5 432.5q0 296 73.5 428.5t227.5 132.5zM1282 1227q-86 0 -125 -100.5t-39 -344.5q0 -247 38.5 -350.5t125.5 -103.5q80 0 118 104.5t38 347.5q0 246 -37 346.5t-119 100.5z" />
    <glyph glyph-name="uni246A" unicode="&#x246a;" 
d="M1024 1755q199 0 379.5 -77.5t311.5 -208.5t208.5 -311.5t77.5 -379.5t-77.5 -379.5t-208.5 -311.5t-311.5 -208.5t-379.5 -77.5t-379.5 77.5t-311.5 208.5t-208.5 311.5t-77.5 379.5t77.5 379.5t208.5 311.5t311.5 208.5t379.5 77.5zM1024 1688q-184 0 -352.5 -72.5
t-290 -194.5t-194 -290.5t-72.5 -352.5t72.5 -352.5t194 -290t290 -194t352.5 -72.5t352.5 72.5t290 194t194 290t72.5 352.5t-72.5 352.5t-194 290.5t-290 194.5t-352.5 72.5zM768 1331v-987h139v-111h-411v111h141v846q-62 -52 -160 -100l-24 114q117 57 204 127h111z
M1456 1331v-987h139v-111h-411v111h141v846q-62 -52 -160 -100l-24 114q119 58 205 127h110z" />
    <glyph glyph-name="uni246B" unicode="&#x246b;" 
d="M1024 1755q199 0 379.5 -77.5t311.5 -208.5t208.5 -311.5t77.5 -379.5t-77.5 -379.5t-208.5 -311.5t-311.5 -208.5t-379.5 -77.5t-379.5 77.5t-311.5 208.5t-208.5 311.5t-77.5 379.5t77.5 379.5t208.5 311.5t311.5 208.5t379.5 77.5zM1024 1688q-184 0 -352.5 -72.5
t-290 -194.5t-194 -290.5t-72.5 -352.5t72.5 -352.5t194 -290t290 -194t352.5 -72.5t352.5 72.5t290 194t194 290t72.5 352.5t-72.5 352.5t-194 290.5t-290 194.5t-352.5 72.5zM756 1331v-987h139v-111h-412v111h142v846q-62 -52 -160 -100l-25 114q119 58 205 127h111z
M1120 1020l-129 31q15 142 89 216t200 74q125 0 199.5 -75.5t74.5 -206.5q0 -98 -39 -174.5t-153 -196.5q-106 -112 -159.5 -186.5t-80.5 -153.5h434v-115h-569v105q35 106 98.5 205t169.5 215q98 107 129 166.5t31 134.5q0 76 -35.5 122t-99.5 46q-139 0 -160 -207z" />
    <glyph glyph-name="uni246C" unicode="&#x246c;" 
d="M1024 1755q199 0 379.5 -77.5t311.5 -208.5t208.5 -311.5t77.5 -379.5t-77.5 -379.5t-208.5 -311.5t-311.5 -208.5t-379.5 -77.5t-379.5 77.5t-311.5 208.5t-208.5 311.5t-77.5 379.5t77.5 379.5t208.5 311.5t311.5 208.5t379.5 77.5zM1024 1688q-184 0 -352.5 -72.5
t-290 -194.5t-194 -290.5t-72.5 -352.5t72.5 -352.5t194 -290t290 -194t352.5 -72.5t352.5 72.5t290 194t194 290t72.5 352.5t-72.5 352.5t-194 290.5t-290 194.5t-352.5 72.5zM756 1331v-987h139v-111h-412v111h142v846q-62 -52 -160 -100l-25 114q119 58 205 127h111z
M1124 1079l-123 43q26 107 97.5 163t181.5 56q126 0 202.5 -74t76.5 -194q0 -99 -48.5 -164.5t-140.5 -87.5v-10q209 -53 209 -276q0 -145 -82.5 -232.5t-216.5 -87.5q-121 0 -194 52.5t-103 170.5l125 49q17 -86 59.5 -122.5t112.5 -36.5t115 53.5t45 148.5q0 106 -49 162
t-146 56h-80v118h76q84 0 131 52t47 147q0 80 -38.5 121t-100.5 41q-59 0 -97.5 -34.5t-58.5 -113.5z" />
    <glyph glyph-name="uni246D" unicode="&#x246d;" 
d="M1024 1755q199 0 379.5 -77.5t311.5 -208.5t208.5 -311.5t77.5 -379.5t-77.5 -379.5t-208.5 -311.5t-311.5 -208.5t-379.5 -77.5t-379.5 77.5t-311.5 208.5t-208.5 311.5t-77.5 379.5t77.5 379.5t208.5 311.5t311.5 208.5t379.5 77.5zM1024 1688q-184 0 -352.5 -72.5
t-290 -194.5t-194 -290.5t-72.5 -352.5t72.5 -352.5t194 -290t290 -194t352.5 -72.5t352.5 72.5t290 194t194 290t72.5 352.5t-72.5 352.5t-194 290.5t-290 194.5t-352.5 72.5zM756 1331v-987h139v-111h-412v111h142v846q-62 -52 -160 -100l-25 114q119 58 205 127h111z
M1460 1331v-737h135v-109h-135v-252h-121v252h-381v103l322 743h180zM1339 594v354q0 61 3.5 161.5t3.5 121.5h-23q-7 -19 -25 -72.5t-32.5 -93t-30.5 -76.5l-164 -395h268z" />
    <glyph glyph-name="uni246E" unicode="&#x246e;" 
d="M1024 1755q199 0 379.5 -77.5t311.5 -208.5t208.5 -311.5t77.5 -379.5t-77.5 -379.5t-208.5 -311.5t-311.5 -208.5t-379.5 -77.5t-379.5 77.5t-311.5 208.5t-208.5 311.5t-77.5 379.5t77.5 379.5t208.5 311.5t311.5 208.5t379.5 77.5zM1024 1688q-184 0 -352.5 -72.5
t-290 -194.5t-194 -290.5t-72.5 -352.5t72.5 -352.5t194 -290t290 -194t352.5 -72.5t352.5 72.5t290 194t194 290t72.5 352.5t-72.5 352.5t-194 290.5t-290 194.5t-352.5 72.5zM756 1331v-987h139v-111h-412v111h142v846q-62 -52 -160 -100l-25 114q119 58 205 127h111z
M1538 1321v-115h-375l-12 -250q-1 -27 -10 -108q27 43 72 69.5t98 26.5q123 0 191.5 -94t68.5 -264q0 -171 -80 -271t-211 -100q-116 0 -185.5 52.5t-97.5 162.5l129 47q20 -80 53 -114.5t101 -34.5q71 0 111.5 69t40.5 189q0 116 -36 179.5t-106 63.5q-108 0 -149 -135
l-117 19l25 608h489z" />
    <glyph glyph-name="uni246F" unicode="&#x246f;" 
d="M1024 1755q199 0 379.5 -77.5t311.5 -208.5t208.5 -311.5t77.5 -379.5t-77.5 -379.5t-208.5 -311.5t-311.5 -208.5t-379.5 -77.5t-379.5 77.5t-311.5 208.5t-208.5 311.5t-77.5 379.5t77.5 379.5t208.5 311.5t311.5 208.5t379.5 77.5zM1024 1688q-184 0 -352.5 -72.5
t-290 -194.5t-194 -290.5t-72.5 -352.5t72.5 -352.5t194 -290t290 -194t352.5 -72.5t352.5 72.5t290 194t194 290t72.5 352.5t-72.5 352.5t-194 290.5t-290 194.5t-352.5 72.5zM756 1331v-987h139v-111h-412v111h142v846q-62 -52 -160 -100l-25 114q119 58 205 127h111z
M1544 1180l-123 -52q-33 101 -114 101q-97 0 -141.5 -107.5t-49.5 -316.5q34 66 86 99.5t111 33.5q114 0 181 -91t67 -255q0 -177 -74.5 -277t-202.5 -100q-151 0 -226 123t-75 391q0 317 82.5 464.5t243.5 147.5q175 0 235 -161zM1118 674q3 -185 42 -266.5t122 -81.5
q141 0 141 262q0 114 -35 176.5t-98 62.5q-114 0 -172 -153z" />
    <glyph glyph-name="uni2470" unicode="&#x2470;" 
d="M1024 1755q199 0 379.5 -77.5t311.5 -208.5t208.5 -311.5t77.5 -379.5t-77.5 -379.5t-208.5 -311.5t-311.5 -208.5t-379.5 -77.5t-379.5 77.5t-311.5 208.5t-208.5 311.5t-77.5 379.5t77.5 379.5t208.5 311.5t311.5 208.5t379.5 77.5zM1024 1688q-184 0 -352.5 -72.5
t-290 -194.5t-194 -290.5t-72.5 -352.5t72.5 -352.5t194 -290t290 -194t352.5 -72.5t352.5 72.5t290 194t194 290t72.5 352.5t-72.5 352.5t-194 290.5t-290 194.5t-352.5 72.5zM784 1331v-987h140v-111h-412v111h141v846q-63 -53 -159 -100l-25 114q119 58 205 127h110z
M1554 1321v-107q-125 -236 -187 -463t-75 -518h-155q21 286 89.5 508.5t198.5 460.5h-442v119h571z" />
    <glyph glyph-name="uni2471" unicode="&#x2471;" 
d="M1024 1755q199 0 379.5 -77.5t311.5 -208.5t208.5 -311.5t77.5 -379.5t-77.5 -379.5t-208.5 -311.5t-311.5 -208.5t-379.5 -77.5t-379.5 77.5t-311.5 208.5t-208.5 311.5t-77.5 379.5t77.5 379.5t208.5 311.5t311.5 208.5t379.5 77.5zM1024 1688q-184 0 -352.5 -72.5
t-290 -194.5t-194 -290.5t-72.5 -352.5t72.5 -352.5t194 -290t290 -194t352.5 -72.5t352.5 72.5t290 194t194 290t72.5 352.5t-72.5 352.5t-194 290.5t-290 194.5t-352.5 72.5zM756 1331v-987h139v-111h-412v111h142v846q-62 -52 -160 -100l-25 114q119 58 205 127h111z
M1372 811q117 -59 162 -126t45 -175q0 -135 -82.5 -215t-222.5 -80q-142 0 -221.5 77t-79.5 214q0 99 46 164.5t155 122.5q-99 55 -139 117t-40 159q0 122 76 197t201 75q126 0 204 -73.5t78 -194.5q0 -93 -41.5 -152.5t-140.5 -109.5zM1264 877l30 -17q77 41 107.5 88
t30.5 123q0 73 -42 118.5t-118 45.5q-72 0 -114 -46t-40 -118q2 -67 33 -109.5t113 -84.5zM1290 725l-33 18q-88 -47 -123.5 -100t-35.5 -135q0 -84 46.5 -135t129.5 -51q85 0 128.5 48t43.5 136q0 74 -32.5 120.5t-123.5 98.5z" />
    <glyph glyph-name="uni2472" unicode="&#x2472;" 
d="M1024 1755q199 0 379.5 -77.5t311.5 -208.5t208.5 -311.5t77.5 -379.5t-77.5 -379.5t-208.5 -311.5t-311.5 -208.5t-379.5 -77.5t-379.5 77.5t-311.5 208.5t-208.5 311.5t-77.5 379.5t77.5 379.5t208.5 311.5t311.5 208.5t379.5 77.5zM1024 1688q-184 0 -352.5 -72.5
t-290 -194.5t-194 -290.5t-72.5 -352.5t72.5 -352.5t194 -290t290 -194t352.5 -72.5t352.5 72.5t290 194t194 290t72.5 352.5t-72.5 352.5t-194 290.5t-290 194.5t-352.5 72.5zM756 1331v-987h139v-111h-412v111h142v846q-62 -52 -160 -100l-25 114q119 58 205 127h111z
M1014 371l127 57q35 -102 116 -102q88 0 135 99t48 320q-28 -64 -79.5 -96.5t-115.5 -32.5q-117 0 -184.5 92.5t-67.5 256.5q0 177 75.5 276.5t207.5 99.5q142 0 218.5 -127.5t76.5 -390.5q0 -322 -77.5 -465t-240.5 -143q-182 0 -239 156zM1438 883q-3 178 -43 262t-117 84
q-71 0 -109.5 -68t-38.5 -196q0 -113 36.5 -176.5t103.5 -63.5q110 0 168 158z" />
    <glyph glyph-name="uni2473" unicode="&#x2473;" 
d="M1024 1755q199 0 379.5 -77.5t311.5 -208.5t208.5 -311.5t77.5 -379.5t-77.5 -379.5t-208.5 -311.5t-311.5 -208.5t-379.5 -77.5t-379.5 77.5t-311.5 208.5t-208.5 311.5t-77.5 379.5t77.5 379.5t208.5 311.5t311.5 208.5t379.5 77.5zM1024 1688q-184 0 -352.5 -72.5
t-290 -194.5t-194 -290.5t-72.5 -352.5t72.5 -352.5t194 -290t290 -194t352.5 -72.5t352.5 72.5t290 194t194 290t72.5 352.5t-72.5 352.5t-194 290.5t-290 194.5t-352.5 72.5zM555 1020l-127 29q17 143 88 217.5t189 74.5q116 0 186 -75t70 -207q0 -96 -38.5 -172.5
t-146.5 -200.5q-94 -109 -141.5 -183.5t-73.5 -154.5h400v-115h-535v105q34 106 94.5 206.5t159.5 213.5q89 107 118 167.5t29 133.5q0 76 -33 122t-92 46q-129 0 -147 -207zM1372 1341q143 0 211 -132.5t68 -426.5q0 -296 -68.5 -431.5t-212.5 -135.5q-147 0 -215 134
t-68 431q0 295 69.5 428t215.5 133zM1372 1227q-78 0 -114.5 -101t-36.5 -344q0 -247 35.5 -350.5t113.5 -103.5q77 0 111.5 102.5t34.5 349.5t-33.5 347t-110.5 100z" />
    <glyph glyph-name="uni2160" unicode="&#x2160;" 
d="M1112 1546v-1509h-178v1509h178z" />
    <glyph glyph-name="uni2161" unicode="&#x2161;" 
d="M825 1546v-1509h-174v1509h174zM1397 1546v-1509h-174v1509h174z" />
    <glyph glyph-name="uni2162" unicode="&#x2162;" 
d="M1108 1546v-1509h-170v1509h170zM586 1546v-1509h-170v1509h170zM1632 1546v-1509h-170v1509h170z" />
    <glyph glyph-name="uni2163" unicode="&#x2163;" 
d="M487 1546v-1509h-168v1509h168zM1884 1546l-479 -1509h-219l-473 1509h188l252 -860q30 -98 76.5 -272.5t58.5 -216.5h33q12 45 56.5 215t72.5 268l260 866h174z" />
    <glyph glyph-name="uni2164" unicode="&#x2164;" 
d="M1622 1546l-489 -1509h-224l-483 1509h192l259 -860q28 -92 72 -254.5t65 -234.5h33q16 58 60 223t73 260l264 866h178z" />
    <glyph glyph-name="uni2165" unicode="&#x2165;" 
d="M1731 1546v-1509h-168v1509h168zM1335 1546l-479 -1509h-219l-473 1509h188l252 -860q30 -98 76.5 -272.5t58.5 -216.5h33q12 45 56.5 215t72.5 268l260 866h174z" />
    <glyph glyph-name="uni2166" unicode="&#x2166;" 
d="M1413 1546v-1509h-162v1509h162zM1831 1546v-1509h-162v1509h162zM1067 1546l-373 -1509h-219l-360 1509h184l193 -897q15 -69 28 -139t29 -161t26 -148h33q12 57 29.5 147l31.5 162t29 139l199 897h170z" />
    <glyph glyph-name="uni2167" unicode="&#x2167;" 
d="M1509 1546v-1509h-153v1509h153zM850 1546l-279 -1509h-221l-272 1509h180l131 -854q12 -75 22.5 -154.5t23 -179.5t20.5 -157h32q61 453 66 489l131 856h166zM1864 1546v-1509h-154v1509h154zM1155 1546v-1509h-154v1509h154z" />
    <glyph glyph-name="uni2168" unicode="&#x2168;" 
d="M487 1546v-1509h-168v1509h168zM1855 1546l-458 -725l485 -784h-201l-333 549q-23 45 -60 98q-35 -59 -57 -98l-330 -549h-188l481 778l-449 731h201l295 -491q18 -35 64 -109q14 20 34.5 59t30.5 54l297 487h188z" />
    <glyph glyph-name="uni2169" unicode="&#x2169;" 
d="M1593 1546l-469 -725l496 -784h-205l-340 549q-33 58 -61 98q-10 -16 -30 -49t-30 -49l-336 -549h-192l492 778l-457 731h203l301 -491q31 -55 65 -109q14 21 37 60.5t31 52.5l303 487h192z" />
    <glyph glyph-name="Japan1.8061" unicode="&#x1f100;" 
d="M1026 1546q235 0 355 -182t120 -578q0 -399 -121 -587.5t-358 -188.5t-357 186.5t-120 585.5q0 395 122.5 579.5t358.5 184.5zM1026 1405q-103 0 -168 -58.5t-100 -197t-35 -365.5q0 -338 72.5 -485t226.5 -147q104 0 169 62t98.5 202t33.5 368t-33 365.5t-97 196.5
t-167 59zM1935 260v-223h-223v223h223z" />
    <glyph glyph-name="uni2488" unicode="&#x2488;" 
d="M1135 1536v-1362h299v-137h-785v137h318v1184q-126 -82 -316 -148l-30 150q189 57 372 176h142zM1935 260v-223h-223v223h223z" />
    <glyph glyph-name="uni2489" unicode="&#x2489;" 
d="M735 1110l-174 39q35 192 161 294.5t314 102.5q197 0 320 -103.5t123 -283.5q0 -127 -70 -236.5t-262 -267.5q-173 -143 -270 -253.5t-154 -223.5h758v-141h-932v127q67 149 179.5 287t291.5 294q166 145 221 229.5t55 184.5q0 113 -72 179.5t-190 66.5
q-124 0 -200.5 -74.5t-98.5 -220.5zM1935 260v-223h-223v223h223z" />
    <glyph glyph-name="uni248A" unicode="&#x248a;" 
d="M725 1192l-170 55q52 144 172.5 221.5t284.5 77.5q196 0 321 -101.5t125 -262.5q0 -134 -80.5 -225t-222.5 -117v-19q159 -31 248.5 -130.5t89.5 -246.5q0 -196 -132.5 -315t-346.5 -119q-185 0 -305.5 72t-182.5 225l170 62q42 -117 118 -168t200 -51q134 0 215.5 79
t81.5 213q0 147 -91.5 226.5t-273.5 79.5h-123v145h111q168 0 256 72t88 202q0 113 -74 176.5t-194 63.5q-104 0 -180.5 -55t-104.5 -160zM1935 260v-223h-223v223h223z" />
    <glyph glyph-name="uni248B" unicode="&#x248b;" 
d="M1264 1536v-1016h221v-135h-221v-348h-158v348h-637v127l553 1024h242zM1106 520v520q0 95 8 361h-35q-18 -37 -50 -104t-57 -119t-50 -99l-295 -559h479zM1935 260v-223h-223v223h223z" />
    <glyph glyph-name="uni248C" unicode="&#x248c;" 
d="M1419 1522v-142h-643l-18 -354q-2 -63 -15 -170q45 67 125 107.5t176 40.5q184 0 309.5 -134t125.5 -348q0 -234 -136 -373t-342 -139q-170 0 -286 73t-168 218l170 61q63 -212 282 -212q137 0 218 97.5t81 268.5q0 165 -75.5 256.5t-208.5 91.5q-96 0 -169 -50
t-106 -142l-143 20l39 830h784zM1935 260v-223h-223v223h223z" />
    <glyph glyph-name="uni248D" unicode="&#x248d;" 
d="M1470 1335l-165 -73q-56 147 -215 147q-347 0 -359 -625q68 104 162.5 156.5t202.5 52.5q179 0 293 -129t114 -342q0 -234 -128 -373t-328 -139q-220 0 -352 176.5t-132 524.5q0 216 37 377t107 261t166.5 148.5t220.5 48.5q133 0 228.5 -55t147.5 -156zM735 631
q0 -243 84.5 -363.5t227.5 -120.5q133 0 206.5 95.5t73.5 275.5q0 160 -70 248t-196 88q-196 0 -326 -223zM1935 260v-223h-223v223h223z" />
    <glyph glyph-name="uni248E" unicode="&#x248e;" 
d="M1483 1522v-127q-211 -311 -320.5 -630.5t-144.5 -727.5h-193q38 387 153.5 698.5t326.5 642.5h-752v144h930zM1935 260v-223h-223v223h223z" />
    <glyph glyph-name="uni248F" unicode="&#x248f;" 
d="M1180 829q186 -80 262 -175t76 -236q0 -189 -135 -298.5t-359 -109.5q-223 0 -357.5 107.5t-134.5 294.5q0 130 79.5 220t258.5 169q-159 74 -227 162.5t-68 214.5q0 158 125.5 263t323.5 105q199 0 327 -102t128 -260q0 -125 -69.5 -208t-229.5 -147zM1010 905l43 -18
q148 58 205 125t57 168q0 106 -79.5 169.5t-211.5 63.5q-129 0 -206 -63.5t-77 -171.5q0 -89 57.5 -148.5t211.5 -124.5zM1047 723l-48 18q-160 -69 -229.5 -143t-69.5 -178q0 -127 87 -202t237 -75q154 0 240 72t86 199q0 102 -66 172t-237 137zM1935 260v-223h-223v223
h223z" />
    <glyph glyph-name="uni2490" unicode="&#x2490;" 
d="M582 213l168 78q66 -144 208 -144q112 0 187 59t119.5 199.5t50.5 366.5q-119 -207 -357 -207q-180 0 -298.5 129.5t-118.5 341.5q0 230 125 370t325 140q230 0 360 -173.5t130 -524.5q0 -838 -523 -838q-278 0 -376 203zM1307 926q-3 235 -81.5 359t-226.5 124
q-133 0 -207.5 -99t-74.5 -272q0 -154 75.5 -243.5t196.5 -89.5q202 0 318 221zM1935 260v-223h-223v223h223z" />
    <glyph glyph-name="uni2474" unicode="&#x2474;" 
d="M383 1776l51 -31q-152 -234 -218 -461.5t-66 -505.5t66 -505t218 -461l-51 -31q-171 253 -247.5 483t-76.5 514q0 285 76.5 515t247.5 483zM1614 1745l51 31q171 -253 247.5 -483t76.5 -515q0 -284 -76.5 -514t-247.5 -483l-51 31q152 234 218 461t66 505t-66 505.5
t-218 461.5zM1141 1536v-1362h278v-137h-739v137h297v1184q-123 -84 -295 -148l-29 150q178 58 348 176h140z" />
    <glyph glyph-name="uni2475" unicode="&#x2475;" 
d="M383 1776l51 -31q-152 -234 -218 -461.5t-66 -505.5t66 -505t218 -461l-51 -31q-171 253 -247.5 483t-76.5 514q0 285 76.5 515t247.5 483zM1614 1745l51 31q171 -253 247.5 -483t76.5 -515q0 -284 -76.5 -514t-247.5 -483l-51 31q152 234 218 461t66 505t-66 505.5
t-218 461.5zM758 1110l-168 39q32 191 150.5 294t293.5 103q186 0 301 -103.5t115 -283.5q0 -128 -64.5 -237t-244.5 -267q-162 -143 -251.5 -252.5t-141.5 -224.5h704v-141h-874v127q63 150 167 288t271 293q155 145 206.5 229.5t51.5 184.5q0 113 -67 179.5t-175 66.5
q-114 0 -184 -74.5t-90 -220.5z" />
    <glyph glyph-name="uni2476" unicode="&#x2476;" 
d="M383 1776l51 -31q-152 -234 -218 -461.5t-66 -505.5t66 -505t218 -461l-51 -31q-171 253 -247.5 483t-76.5 514q0 285 76.5 515t247.5 483zM1614 1745l51 31q171 -253 247.5 -483t76.5 -515q0 -284 -76.5 -514t-247.5 -483l-51 31q152 234 218 461t66 505t-66 505.5
t-218 461.5zM752 1192l-164 55q49 145 161.5 222t266.5 77q184 0 301 -101.5t117 -262.5q0 -135 -75.5 -225.5t-207.5 -116.5v-19q148 -31 231.5 -130.5t83.5 -246.5q0 -196 -124 -315t-324 -119q-174 0 -286.5 72t-170.5 225l164 62q41 -117 111 -168t182 -51q124 0 198 79
t74 213q0 147 -84.5 226.5t-251.5 79.5h-114v145h102q156 0 237 72t81 202q0 113 -68.5 176.5t-177.5 63.5q-94 0 -164.5 -55t-97.5 -160z" />
    <glyph glyph-name="uni2477" unicode="&#x2477;" 
d="M383 1776l51 -31q-152 -234 -218 -461.5t-66 -505.5t66 -505t218 -461l-51 -31q-171 253 -247.5 483t-76.5 514q0 285 76.5 515t247.5 483zM1614 1745l51 31q171 -253 247.5 -483t76.5 -515q0 -284 -76.5 -514t-247.5 -483l-51 31q152 234 218 461t66 505t-66 505.5
t-218 461.5zM1251 1536v-1016h207v-135h-207v-348h-153v348h-594v127l514 1024h233zM1098 520v520q0 95 8 361h-35q-114 -263 -143 -322l-273 -559h443z" />
    <glyph glyph-name="uni2478" unicode="&#x2478;" 
d="M383 1776l51 -31q-152 -234 -218 -461.5t-66 -505.5t66 -505t218 -461l-51 -31q-171 253 -247.5 483t-76.5 514q0 285 76.5 515t247.5 483zM1614 1745l51 31q171 -253 247.5 -483t76.5 -515q0 -284 -76.5 -514t-247.5 -483l-51 31q152 234 218 461t66 505t-66 505.5
t-218 461.5zM1415 1522v-142h-600l-16 -354q0 -8 -13 -170q42 67 116.5 107.5t160.5 40.5q175 0 291 -133.5t116 -348.5q0 -236 -127 -374t-321 -138q-160 0 -268.5 73t-157.5 218l166 61q57 -212 258 -212q126 0 200 97t74 269q0 165 -69.5 256.5t-190.5 91.5
q-87 0 -154.5 -50.5t-97.5 -141.5l-139 20l35 830h737z" />
    <glyph glyph-name="uni2479" unicode="&#x2479;" 
d="M383 1776l51 -31q-152 -234 -218 -461.5t-66 -505.5t66 -505t218 -461l-51 -31q-171 253 -247.5 483t-76.5 514q0 285 76.5 515t247.5 483zM1614 1745l51 31q171 -253 247.5 -483t76.5 -515q0 -284 -76.5 -514t-247.5 -483l-51 31q152 234 218 461t66 505t-66 505.5
t-218 461.5zM1440 1335l-162 -71q-53 145 -197 145q-317 0 -329 -625q63 104 149.5 156.5t185.5 52.5q169 0 276 -128.5t107 -342.5q0 -234 -119.5 -373t-308.5 -139q-207 0 -330.5 176.5t-123.5 524.5q0 426 130 630.5t367 204.5q126 0 216.5 -55t138.5 -156zM756 631
q0 -243 77 -363.5t209 -120.5q120 0 188 96t68 275q0 159 -64.5 247.5t-178.5 88.5q-177 0 -299 -223z" />
    <glyph glyph-name="uni247A" unicode="&#x247a;" 
d="M383 1776l51 -31q-152 -234 -218 -461.5t-66 -505.5t66 -505t218 -461l-51 -31q-171 253 -247.5 483t-76.5 514q0 285 76.5 515t247.5 483zM1614 1745l51 31q171 -253 247.5 -483t76.5 -515q0 -284 -76.5 -514t-247.5 -483l-51 31q152 234 218 461t66 505t-66 505.5
t-218 461.5zM1456 1511v-127q-195 -314 -297.5 -634t-134.5 -723h-188q35 389 144.5 704.5t305.5 636.5h-702v143h872z" />
    <glyph glyph-name="uni247B" unicode="&#x247b;" 
d="M383 1776l51 -31q-152 -234 -218 -461.5t-66 -505.5t66 -505t218 -461l-51 -31q-171 253 -247.5 483t-76.5 514q0 285 76.5 515t247.5 483zM1614 1745l51 31q171 -253 247.5 -483t76.5 -515q0 -284 -76.5 -514t-247.5 -483l-51 31q152 234 218 461t66 505t-66 505.5
t-218 461.5zM1169 829q175 -80 246.5 -175t71.5 -236q0 -189 -127 -298.5t-336 -109.5q-208 0 -334.5 107.5t-126.5 294.5q0 130 75 220t243 169q-150 74 -213.5 163t-63.5 214q0 159 117.5 263.5t302.5 104.5q187 0 306.5 -101.5t119.5 -260.5q0 -123 -65.5 -206
t-215.5 -149zM1010 905l41 -18q133 58 185 126t52 167q0 104 -73.5 168.5t-190.5 64.5q-116 0 -187 -64t-71 -171q0 -89 53 -150t191 -123zM1044 723l-43 18q-147 -69 -210.5 -143.5t-63.5 -177.5q0 -125 80.5 -201t216.5 -76q140 0 219.5 73t79.5 198q0 101 -61 171.5
t-218 137.5z" />
    <glyph glyph-name="uni247C" unicode="&#x247c;" 
d="M383 1776l51 -31q-152 -234 -218 -461.5t-66 -505.5t66 -505t218 -461l-51 -31q-171 253 -247.5 483t-76.5 514q0 285 76.5 515t247.5 483zM1614 1745l51 31q171 -253 247.5 -483t76.5 -515q0 -284 -76.5 -514t-247.5 -483l-51 31q152 234 218 461t66 505t-66 505.5
t-218 461.5zM618 213l164 76q61 -142 191 -142q77 0 134 33t99.5 106t66 194t27.5 292q-113 -207 -327 -207q-169 0 -281 130t-112 341q0 230 118 370t306 140q215 0 336.5 -173.5t121.5 -524.5q0 -838 -489 -838q-262 0 -355 203zM1292 926q-3 235 -74.5 359t-207.5 124
q-121 0 -189.5 -99.5t-68.5 -271.5q0 -154 69 -243.5t180 -89.5q183 0 291 221z" />
    <glyph glyph-name="uni247D" unicode="&#x247d;" 
d="M383 1776l51 -31q-152 -234 -218 -461.5t-66 -505.5t66 -505t218 -461l-51 -31q-171 253 -247.5 483t-76.5 514q0 285 76.5 515t247.5 483zM1614 1745l51 31q171 -253 247.5 -483t76.5 -515q0 -284 -76.5 -514t-247.5 -483l-51 31q152 234 218 461t66 505t-66 505.5
t-218 461.5zM727 1538v-1372h141v-129h-434v129h148v1194q-75 -82 -168 -137l-25 141q104 58 211 174h127zM1284 1546q116 0 187 -73.5t107 -241t36 -445.5q0 -281 -36.5 -451.5t-108.5 -246.5t-189 -76q-118 0 -189.5 74.5t-107 244t-35.5 451.5q0 278 37 447t109.5 243
t189.5 74zM1284 1413q-64 0 -102 -56t-58 -195t-20 -378q0 -238 19.5 -379t57.5 -200.5t101 -59.5t101.5 59.5t58.5 200.5t20 379q0 240 -19.5 378.5t-57 194.5t-101.5 56z" />
    <glyph glyph-name="uni247E" unicode="&#x247e;" 
d="M383 1776l51 -31q-152 -234 -218 -461.5t-66 -505.5t66 -505t218 -461l-51 -31q-171 253 -247.5 483t-76.5 514q0 285 76.5 515t247.5 483zM1614 1745l51 31q171 -253 247.5 -483t76.5 -515q0 -284 -76.5 -514t-247.5 -483l-51 31q152 234 218 461t66 505t-66 505.5
t-218 461.5zM745 1538v-1372h142v-129h-432v129h145v1194q-75 -82 -166 -137l-24 141q107 61 211 174h124zM1499 1538v-1372h139v-129h-434v129h148v1194q-75 -82 -166 -137l-25 141q107 61 211 174h127z" />
    <glyph glyph-name="uni247F" unicode="&#x247f;" 
d="M383 1776l51 -31q-152 -234 -218 -461.5t-66 -505.5t66 -505t218 -461l-51 -31q-171 253 -247.5 483t-76.5 514q0 285 76.5 515t247.5 483zM1614 1745l51 31q171 -253 247.5 -483t76.5 -515q0 -284 -76.5 -514t-247.5 -483l-51 31q152 234 218 461t66 505t-66 505.5
t-218 461.5zM727 1538v-1372h141v-129h-434v129h148v1194q-75 -82 -168 -137l-25 141q104 58 211 174h127zM1108 1110l-147 35q13 199 98 300t223 101q147 0 229 -100t82 -291q0 -131 -45 -235.5t-174 -268.5q-191 -236 -262 -481h473v-133h-627v125q43 154 115 296.5
t189 293.5q105 136 140.5 221t35.5 182q0 126 -39.5 192t-116.5 66t-120.5 -73.5t-53.5 -229.5z" />
    <glyph glyph-name="uni2480" unicode="&#x2480;" 
d="M383 1776l51 -31q-152 -234 -218 -461.5t-66 -505.5t66 -505t218 -461l-51 -31q-171 253 -247.5 483t-76.5 514q0 285 76.5 515t247.5 483zM1614 1745l51 31q171 -253 247.5 -483t76.5 -515q0 -284 -76.5 -514t-247.5 -483l-51 31q152 234 218 461t66 505t-66 505.5
t-218 461.5zM727 1538v-1372h141v-129h-434v129h148v1194q-75 -82 -168 -137l-25 141q104 58 211 174h127zM1110 1192l-147 51q27 151 108.5 227t208.5 76q145 0 226 -95.5t81 -268.5q0 -283 -217 -346v-7q242 -72 242 -383q0 -206 -86.5 -320t-245.5 -114q-144 0 -224.5 72
t-111.5 231l146 58q17 -125 61.5 -176.5t128.5 -51.5t130 77.5t46 221.5q0 147 -57 226.5t-162 79.5h-98v141h90q96 0 151.5 72.5t55.5 201.5q0 122 -40 185t-118 63q-70 0 -111.5 -53t-56.5 -168z" />
    <glyph glyph-name="uni2481" unicode="&#x2481;" 
d="M383 1776l51 -31q-152 -234 -218 -461.5t-66 -505.5t66 -505t218 -461l-51 -31q-171 253 -247.5 483t-76.5 514q0 285 76.5 515t247.5 483zM1614 1745l51 31q171 -253 247.5 -483t76.5 -515q0 -284 -76.5 -514t-247.5 -483l-51 31q152 234 218 461t66 505t-66 505.5
t-218 461.5zM727 1538v-1372h141v-129h-434v129h148v1194q-75 -82 -168 -137l-25 141q104 58 211 174h127zM1497 1538v-1020h156v-129h-156v-352h-141v352h-424v121l350 1028h215zM1356 518v490q0 165 10 393h-33q-54 -213 -100 -352l-178 -531h301z" />
    <glyph glyph-name="uni2482" unicode="&#x2482;" 
d="M383 1776l51 -31q-152 -234 -218 -461.5t-66 -505.5t66 -505t218 -461l-51 -31q-171 253 -247.5 483t-76.5 514q0 285 76.5 515t247.5 483zM1614 1745l51 31q171 -253 247.5 -483t76.5 -515q0 -284 -76.5 -514t-247.5 -483l-51 31q152 234 218 461t66 505t-66 505.5
t-218 461.5zM727 1538v-1372h141v-129h-434v129h148v1194q-75 -82 -168 -137l-25 139q105 61 211 176h127zM1559 1522v-133h-408l-16 -367q-1 -27 -4.5 -72t-4.5 -67q26 54 73.5 87.5t107.5 33.5q135 0 210.5 -124t75.5 -358q0 -245 -88 -377.5t-241 -132.5
q-130 0 -205.5 72.5t-104.5 226.5l146 58q15 -117 54.5 -170.5t111.5 -53.5q80 0 126 95.5t46 277.5q0 352 -160 352q-58 0 -97 -52t-57 -146l-135 18l25 832h545z" />
    <glyph glyph-name="uni2483" unicode="&#x2483;" 
d="M383 1776l51 -31q-152 -234 -218 -461.5t-66 -505.5t66 -505t218 -461l-51 -31q-171 253 -247.5 483t-76.5 514q0 285 76.5 515t247.5 483zM1614 1745l51 31q171 -253 247.5 -483t76.5 -515q0 -284 -76.5 -514t-247.5 -483l-51 31q152 234 218 461t66 505t-66 505.5
t-218 461.5zM727 1538v-1372h141v-129h-434v129h148v1194q-75 -82 -168 -137l-25 141q104 58 211 174h127zM1610 1327l-144 -61q-40 147 -129 147q-100 0 -152.5 -140t-56.5 -446q74 168 220 168q128 0 204 -123.5t76 -347.5q0 -245 -83.5 -378.5t-227.5 -133.5
q-112 0 -185.5 67.5t-113 224.5t-39.5 409q0 300 43 486.5t121 266.5t198 80q100 0 169 -57.5t100 -161.5zM1128 639q1 -258 47.5 -377t137.5 -119q80 0 122 96.5t42 280.5q0 342 -154 342q-66 0 -116 -55t-79 -168z" />
    <glyph glyph-name="uni2484" unicode="&#x2484;" 
d="M383 1776l51 -31q-152 -234 -218 -461.5t-66 -505.5t66 -505t218 -461l-51 -31q-171 253 -247.5 483t-76.5 514q0 285 76.5 515t247.5 483zM1614 1745l51 31q171 -253 247.5 -483t76.5 -515q0 -284 -76.5 -514t-247.5 -483l-51 31q152 234 218 461t66 505t-66 505.5
t-218 461.5zM741 1538v-1372h140v-129h-432v129h147v1194q-81 -84 -168 -137l-25 141q104 58 211 174h127zM1614 1522v-129q-136 -318 -206 -634t-93 -722h-170q26 383 105 708.5t218 638.5h-493v138h639z" />
    <glyph glyph-name="uni2485" unicode="&#x2485;" 
d="M383 1776l51 -31q-152 -234 -218 -461.5t-66 -505.5t66 -505t218 -461l-51 -31q-171 253 -247.5 483t-76.5 514q0 285 76.5 515t247.5 483zM1614 1745l51 31q171 -253 247.5 -483t76.5 -515q0 -284 -76.5 -514t-247.5 -483l-51 31q152 234 218 461t66 505t-66 505.5
t-218 461.5zM727 1538v-1372h141v-129h-434v129h148v1194q-75 -82 -168 -137l-25 141q104 58 211 174h127zM1382 825q132 -79 184 -170t52 -239q0 -194 -92 -299t-252 -105q-159 0 -247.5 107t-88.5 295q0 135 56 228t177 163q-114 73 -159 156t-45 217q0 171 84.5 269.5
t226.5 98.5q147 0 231 -96t84 -266q0 -130 -46.5 -210t-164.5 -149zM1260 911l32 -22q87 52 124.5 122t37.5 175q0 107 -44.5 169t-131.5 62q-82 0 -127 -65t-45 -176q0 -96 34 -154t120 -111zM1294 717l-34 22q-94 -63 -136.5 -136t-42.5 -181q0 -134 51 -207.5t142 -73.5
q98 0 146 70t48 201q0 109 -37.5 175t-136.5 130z" />
    <glyph glyph-name="uni2486" unicode="&#x2486;" 
d="M383 1776l51 -31q-152 -234 -218 -461.5t-66 -505.5t66 -505t218 -461l-51 -31q-171 253 -247.5 483t-76.5 514q0 285 76.5 515t247.5 483zM1614 1745l51 31q171 -253 247.5 -483t76.5 -515q0 -284 -76.5 -514t-247.5 -483l-51 31q152 234 218 461t66 505t-66 505.5
t-218 461.5zM727 1538v-1372h141v-129h-434v129h148v1194q-75 -82 -168 -137l-25 141q104 58 211 174h127zM979 231l139 60q20 -78 52.5 -112t82.5 -34q105 0 155.5 141t53.5 453q-35 -90 -90.5 -130t-132.5 -40q-134 0 -208.5 123t-74.5 350q0 247 83 375.5t233 128.5
q114 0 186.5 -68.5t110 -224t37.5 -407.5q0 -304 -36 -485t-113.5 -265t-207.5 -84q-107 0 -176 56.5t-94 162.5zM1458 924q-3 258 -47 374.5t-135 116.5q-83 0 -126.5 -95.5t-43.5 -279.5q0 -167 42.5 -253.5t119.5 -86.5q62 0 107.5 54t82.5 170z" />
    <glyph glyph-name="uni2487" unicode="&#x2487;" 
d="M383 1776l51 -31q-152 -234 -218 -461.5t-66 -505.5t66 -505t218 -461l-51 -31q-171 253 -247.5 483t-76.5 514q0 285 76.5 515t247.5 483zM1614 1745l51 31q171 -253 247.5 -483t76.5 -515q0 -284 -76.5 -514t-247.5 -483l-51 31q152 234 218 461t66 505t-66 505.5
t-218 461.5zM539 1112l-142 33q12 206 81.5 303.5t197.5 97.5q126 0 196 -100.5t70 -288.5q0 -129 -38.5 -233.5t-147.5 -270.5q-91 -140 -141 -254t-76 -229h401v-133h-545v125q61 284 260 594q86 135 113 218t27 183q0 136 -29 196t-90 60q-63 0 -97 -68t-40 -233z
M1366 1546q106 0 169 -70.5t94.5 -237t31.5 -452.5q0 -287 -32 -457t-96 -243.5t-171 -73.5t-170.5 72.5t-95 241.5t-31.5 456q0 285 33 453.5t97.5 239.5t170.5 71zM1366 1413q-85 0 -119.5 -142.5t-34.5 -486.5q0 -348 33 -493.5t117 -145.5q85 0 118 145t33 494
q0 350 -31 489.5t-116 139.5z" />
    <glyph glyph-name="uni3251" unicode="&#x3251;" 
d="M1024 1755q199 0 379.5 -77.5t311.5 -208.5t208.5 -311.5t77.5 -379.5t-77.5 -379.5t-208.5 -311.5t-311.5 -208.5t-379.5 -77.5t-379.5 77.5t-311.5 208.5t-208.5 311.5t-77.5 379.5t77.5 379.5t208.5 311.5t311.5 208.5t379.5 77.5zM1024 1688q-184 0 -352.5 -72.5
t-290 -194.5t-194 -290.5t-72.5 -352.5t72.5 -352.5t194 -290t290 -194t352.5 -72.5t352.5 72.5t290 194t194 290t72.5 352.5t-72.5 352.5t-194 290.5t-290 194.5t-352.5 72.5zM602 1020l-129 31q15 142 89 216t200 74q125 0 199.5 -75.5t74.5 -206.5q0 -98 -39 -174.5
t-153 -196.5q-106 -112 -159.5 -186.5t-80.5 -153.5h434v-115h-569v105q35 106 98.5 205t169.5 215q98 107 129 166.5t31 134.5q0 76 -35.5 122t-99.5 46q-139 0 -160 -207zM1475 1331v-987h137v-111h-410v111h141v846q-63 -53 -159 -100l-25 114q114 56 203 127h113z" />
    <glyph glyph-name="uni2170" unicode="&#x2170;" 
d="M1106 1083v-1046h-168v1046h168zM1122 1487v-199h-200v199h200z" />
    <glyph glyph-name="uni2171" unicode="&#x2171;" 
d="M858 1083v-1046h-164v1046h164zM874 1487v-199h-196v199h196zM1348 1083v-1046h-164v1046h164zM1364 1487v-199h-197v199h197z" />
    <glyph glyph-name="uni2172" unicode="&#x2172;" 
d="M1102 1083v-1046h-160v1046h160zM1118 1487v-199h-192v199h192zM643 1083v-1046h-160v1046h160zM659 1487v-199h-192v199h192zM1563 1083v-1046h-160v1046h160zM1579 1487v-199h-193v199h193z" />
    <glyph glyph-name="uni2173" unicode="&#x2173;" 
d="M1700 1083l-330 -1046h-203l-329 1046h178l155 -573q19 -68 47 -182t39 -156h31q15 53 43 166t47 178l156 567h166zM623 1083v-1046h-158v1046h158zM639 1487v-199h-190v199h190z" />
    <glyph glyph-name="uni2174" unicode="&#x2174;" 
d="M1462 1083l-336 -1046h-206l-336 1046h180l160 -573q15 -53 29 -108t31 -122t28 -108h30q18 61 47 173.5t46 170.5l159 567h168z" />
    <glyph glyph-name="uni2175" unicode="&#x2175;" 
d="M1212 1083l-329 -1046h-203l-330 1046h178l156 -573q19 -68 47 -182t39 -156h31q15 53 43 166t47 178l156 567h165zM1585 1083v-1046h-158v1046h158zM1602 1487v-199h-191v199h191z" />
    <glyph glyph-name="uni2176" unicode="&#x2176;" 
d="M1040 1083l-319 -1046h-203l-317 1046h168l166 -604q17 -61 40 -159.5t35 -143.5h33q13 48 37 150t39 157l160 600h161zM1370 1083v-1046h-153v1046h153zM1386 1487v-199h-186v199h186zM1757 1083v-1046h-153v1046h153zM1774 1487v-199h-187v199h187z" />
    <glyph glyph-name="uni2177" unicode="&#x2177;" 
d="M899 1083l-297 -1046h-203l-286 1046h166l137 -571q17 -70 41.5 -187.5t31.5 -148.5h33q17 65 46 189t36 155l137 563h158zM1180 1083v-1046h-146v1046h146zM1196 1487v-199h-178v199h178zM1516 1083v-1046h-146v1046h146zM1532 1487v-199h-178v199h178zM1851 1083v-1046
h-145v1046h145zM1868 1487v-199h-178v199h178z" />
    <glyph glyph-name="uni2178" unicode="&#x2178;" 
d="M1677 1083l-319 -505l344 -541h-180l-205 338q-5 9 -24 40t-29 50q-7 -13 -24.5 -42.5t-25.5 -45.5l-196 -340h-178l334 536l-322 510h180l187 -311q21 -44 53 -90q34 49 53 94l176 307h176zM623 1083v-1046h-158v1046h158zM639 1487v-199h-190v199h190z" />
    <glyph glyph-name="uni2179" unicode="&#x2179;" 
d="M1442 1083l-326 -505l350 -541h-184l-209 338q-5 9 -24 40t-29 50q-10 -17 -27 -46t-24 -42l-201 -340h-180l340 536l-328 510h184l189 -311q27 -49 55 -90q32 46 55 94l179 307h180z" />
    <glyph glyph-name="uni3252" unicode="&#x3252;" 
d="M1024 1755q199 0 379.5 -77.5t311.5 -208.5t208.5 -311.5t77.5 -379.5t-77.5 -379.5t-208.5 -311.5t-311.5 -208.5t-379.5 -77.5t-379.5 77.5t-311.5 208.5t-208.5 311.5t-77.5 379.5t77.5 379.5t208.5 311.5t311.5 208.5t379.5 77.5zM1024 1688q-184 0 -352.5 -72.5
t-290 -194.5t-194 -290.5t-72.5 -352.5t72.5 -352.5t194 -290t290 -194t352.5 -72.5t352.5 72.5t290 194t194 290t72.5 352.5t-72.5 352.5t-194 290.5t-290 194.5t-352.5 72.5zM1210 1020l-125 29q15 142 86 217t189 75q117 0 187.5 -75t70.5 -207q0 -94 -38.5 -170.5
t-145.5 -202.5q-94 -109 -142 -183t-75 -155h401v-115h-535v105q60 199 250 420q91 107 120.5 167.5t29.5 133.5q0 77 -32.5 122.5t-92.5 45.5q-130 0 -148 -207zM549 1020l-127 29q17 143 87.5 217.5t188.5 74.5q116 0 186 -75t70 -207q0 -96 -38 -172.5t-146 -200.5
q-94 -110 -141.5 -184t-71.5 -154h397v-115h-534v105q34 106 94.5 206.5t159.5 213.5q89 107 118 167.5t29 133.5q0 76 -33 122t-92 46q-129 0 -147 -207z" />
    <glyph glyph-name="uni3253" unicode="&#x3253;" 
d="M1024 1755q199 0 379.5 -77.5t311.5 -208.5t208.5 -311.5t77.5 -379.5t-77.5 -379.5t-208.5 -311.5t-311.5 -208.5t-379.5 -77.5t-379.5 77.5t-311.5 208.5t-208.5 311.5t-77.5 379.5t77.5 379.5t208.5 311.5t311.5 208.5t379.5 77.5zM1024 1688q-184 0 -352.5 -72.5
t-290 -194.5t-194 -290.5t-72.5 -352.5t72.5 -352.5t194 -290t290 -194t352.5 -72.5t352.5 72.5t290 194t194 290t72.5 352.5t-72.5 352.5t-194 290.5t-290 194.5t-352.5 72.5zM1214 1079l-120 39q25 108 92.5 165.5t173.5 57.5q118 0 190 -74.5t72 -193.5q0 -98 -48 -164
t-134 -88v-10q97 -26 147.5 -96.5t50.5 -179.5q0 -146 -77 -233t-203 -87q-117 0 -185 53.5t-96 169.5l121 49q17 -86 55.5 -122.5t102.5 -36.5q67 0 107 52.5t40 149.5q0 106 -45 162t-135 56h-70v118h66q80 0 125 52t45 147q0 82 -36 122t-97 40q-55 0 -90.5 -33.5
t-51.5 -114.5zM555 1020l-127 29q17 143 88 217.5t189 74.5q116 0 186 -75t70 -207q0 -96 -38.5 -172.5t-146.5 -200.5q-94 -109 -141.5 -183.5t-73.5 -154.5h400v-115h-535v105q34 106 94.5 206.5t159.5 213.5q89 107 118 167.5t29 133.5q0 76 -33 122t-92 46
q-129 0 -147 -207z" />
    <glyph glyph-name="uni3254" unicode="&#x3254;" 
d="M1024 1755q199 0 379.5 -77.5t311.5 -208.5t208.5 -311.5t77.5 -379.5t-77.5 -379.5t-208.5 -311.5t-311.5 -208.5t-379.5 -77.5t-379.5 77.5t-311.5 208.5t-208.5 311.5t-77.5 379.5t77.5 379.5t208.5 311.5t311.5 208.5t379.5 77.5zM1024 1688q-184 0 -352.5 -72.5
t-290 -194.5t-194 -290.5t-72.5 -352.5t72.5 -352.5t194 -290t290 -194t352.5 -72.5t352.5 72.5t290 194t194 290t72.5 352.5t-72.5 352.5t-194 290.5t-290 194.5t-352.5 72.5zM1497 1331v-737h125v-109h-125v-252h-117v252h-354v103l293 743h178zM1380 594v354
q0 58 4.5 148t4.5 135h-21q-13 -34 -40.5 -115.5t-47.5 -134.5l-145 -387h245zM571 1020l-127 29q17 143 87.5 217.5t187.5 74.5t188.5 -75t71.5 -207q0 -94 -38.5 -170.5t-145.5 -202.5q-94 -109 -142 -183t-75 -155h399v-115h-533v105q62 199 250 420q91 107 120.5 167.5
t29.5 133.5q0 76 -33 122t-92 46q-133 0 -148 -207z" />
    <glyph glyph-name="uni3255" unicode="&#x3255;" 
d="M1024 1755q199 0 379.5 -77.5t311.5 -208.5t208.5 -311.5t77.5 -379.5t-77.5 -379.5t-208.5 -311.5t-311.5 -208.5t-379.5 -77.5t-379.5 77.5t-311.5 208.5t-208.5 311.5t-77.5 379.5t77.5 379.5t208.5 311.5t311.5 208.5t379.5 77.5zM1024 1688q-184 0 -352.5 -72.5
t-290 -194.5t-194 -290.5t-72.5 -352.5t72.5 -352.5t194 -290t290 -194t352.5 -72.5t352.5 72.5t290 194t194 290t72.5 352.5t-72.5 352.5t-194 290.5t-290 194.5t-352.5 72.5zM1593 1321v-115h-342l-10 -252q-1 -25 -10 -106q56 96 153 96q113 0 179.5 -95t66.5 -263
q0 -171 -76 -271t-200 -100q-107 0 -171 51t-91 164l125 47q17 -79 49 -114t88 -35q64 0 103.5 68t39.5 190q0 119 -34.5 182t-96.5 63q-99 0 -137 -137l-109 17l19 610h454zM563 1020l-127 29q17 143 87.5 217.5t187.5 74.5t188.5 -75t71.5 -207q0 -94 -38.5 -170
t-146.5 -203q-95 -111 -143 -185t-74 -153h400v-115h-533v105q62 199 250 420q91 107 120.5 167.5t29.5 133.5q0 77 -32.5 122.5t-92.5 45.5q-133 0 -148 -207z" />
    <glyph glyph-name="uni3256" unicode="&#x3256;" 
d="M1024 1755q199 0 379.5 -77.5t311.5 -208.5t208.5 -311.5t77.5 -379.5t-77.5 -379.5t-208.5 -311.5t-311.5 -208.5t-379.5 -77.5t-379.5 77.5t-311.5 208.5t-208.5 311.5t-77.5 379.5t77.5 379.5t208.5 311.5t311.5 208.5t379.5 77.5zM1024 1688q-184 0 -352.5 -72.5
t-290 -194.5t-194 -290.5t-72.5 -352.5t72.5 -352.5t194 -290t290 -194t352.5 -72.5t352.5 72.5t290 194t194 290t72.5 352.5t-72.5 352.5t-194 290.5t-290 194.5t-352.5 72.5zM1614 1184l-121 -56q-32 101 -107 101q-46 0 -79.5 -28t-54 -84t-30.5 -132.5t-12 -179.5
q32 65 80 98t105 33q107 0 170 -90.5t63 -253.5q0 -177 -70 -277t-190 -100q-143 0 -214 122.5t-71 391.5q0 319 77 465.5t229 146.5q159 0 225 -157zM1210 674q3 -185 41 -266.5t113 -81.5q133 0 133 262q0 112 -34 175.5t-93 63.5q-104 0 -160 -153zM555 1020l-127 29
q17 143 88 217.5t189 74.5q116 0 186 -75t70 -207q0 -96 -38.5 -172.5t-146.5 -200.5q-94 -109 -141.5 -183.5t-73.5 -154.5h400v-115h-535v105q34 106 94.5 206.5t159.5 213.5q89 107 118 167.5t29 133.5q0 76 -33 122t-92 46q-129 0 -147 -207z" />
    <glyph glyph-name="uni3257" unicode="&#x3257;" 
d="M1024 1755q199 0 379.5 -77.5t311.5 -208.5t208.5 -311.5t77.5 -379.5t-77.5 -379.5t-208.5 -311.5t-311.5 -208.5t-379.5 -77.5t-379.5 77.5t-311.5 208.5t-208.5 311.5t-77.5 379.5t77.5 379.5t208.5 311.5t311.5 208.5t379.5 77.5zM1024 1688q-184 0 -352.5 -72.5
t-290 -194.5t-194 -290.5t-72.5 -352.5t72.5 -352.5t194 -290t290 -194t352.5 -72.5t352.5 72.5t290 194t194 290t72.5 352.5t-72.5 352.5t-194 290.5t-290 194.5t-352.5 72.5zM1608 1321v-104q-119 -236 -176.5 -463t-67.5 -521h-152q20 288 84.5 512.5t186.5 458.5h-410
v117h535zM565 1020l-127 29q19 143 89.5 217.5t187.5 74.5q116 0 187 -75.5t71 -206.5q0 -94 -38.5 -170t-146.5 -203q-94 -109 -142 -183t-75 -155h400v-115h-533v105q62 199 250 420q92 108 122 168t30 133q0 77 -33.5 122.5t-93.5 45.5q-130 0 -148 -207z" />
    <glyph glyph-name="uni3258" unicode="&#x3258;" 
d="M1024 1755q199 0 379.5 -77.5t311.5 -208.5t208.5 -311.5t77.5 -379.5t-77.5 -379.5t-208.5 -311.5t-311.5 -208.5t-379.5 -77.5t-379.5 77.5t-311.5 208.5t-208.5 311.5t-77.5 379.5t77.5 379.5t208.5 311.5t311.5 208.5t379.5 77.5zM1024 1688q-184 0 -352.5 -72.5
t-290 -194.5t-194 -290.5t-72.5 -352.5t72.5 -352.5t194 -290t290 -194t352.5 -72.5t352.5 72.5t290 194t194 290t72.5 352.5t-72.5 352.5t-194 290.5t-290 194.5t-352.5 72.5zM1454 811q108 -60 152.5 -128t44.5 -175q0 -135 -78 -214t-209 -79q-135 0 -211 77t-76 214
q0 100 44.5 164.5t150.5 122.5q-96 53 -135 116.5t-39 159.5q0 124 72 198t192 74q118 0 192 -73t74 -193q0 -94 -41 -155t-133 -109zM1354 877l26 -17q69 42 99 90t30 121q0 74 -39.5 119t-107.5 45q-65 0 -103 -46t-38 -118q0 -65 29.5 -109t103.5 -85zM1378 725l-30 16
q-79 -46 -111.5 -98.5t-32.5 -136.5q0 -83 42.5 -133.5t117.5 -50.5q76 0 117 49t41 135q0 74 -31.5 122t-112.5 97zM553 1020l-127 29q17 143 87.5 217.5t188.5 74.5q116 0 187.5 -75.5t71.5 -206.5q0 -95 -38.5 -171t-146.5 -202q-94 -109 -141.5 -183.5t-73.5 -154.5h397
v-115h-532v105q63 200 252 420q89 107 118 167.5t29 133.5q0 77 -32 122.5t-91 45.5q-131 0 -149 -207z" />
    <glyph glyph-name="uni3259" unicode="&#x3259;" 
d="M1024 1755q199 0 379.5 -77.5t311.5 -208.5t208.5 -311.5t77.5 -379.5t-77.5 -379.5t-208.5 -311.5t-311.5 -208.5t-379.5 -77.5t-379.5 77.5t-311.5 208.5t-208.5 311.5t-77.5 379.5t77.5 379.5t208.5 311.5t311.5 208.5t379.5 77.5zM1024 1688q-184 0 -352.5 -72.5
t-290 -194.5t-194 -290.5t-72.5 -352.5t72.5 -352.5t194 -290t290 -194t352.5 -72.5t352.5 72.5t290 194t194 290t72.5 352.5t-72.5 352.5t-194 290.5t-290 194.5t-352.5 72.5zM1120 371l119 57q25 -102 107 -102t125.5 98.5t44.5 320.5q-56 -127 -183 -127q-107 0 -171 92
t-64 255q0 178 69 277t195 99q280 0 280 -518q0 -322 -74 -465t-229 -143q-173 0 -219 156zM1513 883q-3 346 -147 346q-66 0 -101.5 -69t-35.5 -195q0 -113 34 -175.5t95 -62.5q99 0 155 156zM557 1020l-127 29q17 143 88 217.5t189 74.5q116 0 187 -75.5t71 -206.5
q0 -95 -38.5 -171t-146.5 -202q-94 -109 -142 -183t-75 -155h400v-115h-533v105q63 200 252 420q89 107 118 167.5t29 133.5q0 77 -31.5 122.5t-90.5 45.5q-132 0 -150 -207z" />
    <glyph glyph-name="uni325A" unicode="&#x325a;" 
d="M1024 1755q199 0 379.5 -77.5t311.5 -208.5t208.5 -311.5t77.5 -379.5t-77.5 -379.5t-208.5 -311.5t-311.5 -208.5t-379.5 -77.5t-379.5 77.5t-311.5 208.5t-208.5 311.5t-77.5 379.5t77.5 379.5t208.5 311.5t311.5 208.5t379.5 77.5zM1024 1688q-184 0 -352.5 -72.5
t-290 -194.5t-194 -290.5t-72.5 -352.5t72.5 -352.5t194 -290t290 -194t352.5 -72.5t352.5 72.5t290 194t194 290t72.5 352.5t-72.5 352.5t-194 290.5t-290 194.5t-352.5 72.5zM547 1079l-123 39q58 223 268 223q118 0 189 -74.5t71 -193.5q0 -98 -47 -164t-133 -88v-10
q97 -26 148 -96.5t51 -179.5q0 -146 -77.5 -233t-201.5 -87q-117 0 -185 53t-97 170l122 49q14 -86 53.5 -122.5t104.5 -36.5q66 0 107 52.5t41 149.5q0 106 -46 162t-137 56h-69v118h65q80 0 125 52t45 147q0 81 -35.5 121.5t-95.5 40.5q-56 0 -91.5 -33.5t-51.5 -114.5z
M1374 1341q144 0 212.5 -132.5t68.5 -426.5q0 -296 -69.5 -431.5t-213.5 -135.5q-146 0 -213 134t-67 431q0 294 69 427.5t213 133.5zM1374 1227q-52 0 -83.5 -41t-48.5 -140t-17 -264q0 -247 35 -350.5t112 -103.5t112.5 103t35.5 349t-34.5 346.5t-111.5 100.5z" />
    <glyph glyph-name="uni325B" unicode="&#x325b;" 
d="M1024 1755q199 0 379.5 -77.5t311.5 -208.5t208.5 -311.5t77.5 -379.5t-77.5 -379.5t-208.5 -311.5t-311.5 -208.5t-379.5 -77.5t-379.5 77.5t-311.5 208.5t-208.5 311.5t-77.5 379.5t77.5 379.5t208.5 311.5t311.5 208.5t379.5 77.5zM1024 1688q-184 0 -352.5 -72.5
t-290 -194.5t-194 -290.5t-72.5 -352.5t72.5 -352.5t194 -290t290 -194t352.5 -72.5t352.5 72.5t290 194t194 290t72.5 352.5t-72.5 352.5t-194 290.5t-290 194.5t-352.5 72.5zM596 1079l-123 43q26 107 97.5 163t181.5 56q126 0 202 -74t76 -194q0 -99 -48.5 -164.5
t-139.5 -87.5v-10q209 -53 209 -276q0 -145 -82.5 -232.5t-216.5 -87.5q-121 0 -194 52.5t-103 170.5l125 49q17 -86 59.5 -122.5t112.5 -36.5t114.5 53.5t44.5 148.5q0 106 -48.5 162t-145.5 56h-80v118h76q84 0 131 52t47 147q0 80 -38.5 121t-100.5 41q-59 0 -97.5 -34.5
t-58.5 -113.5zM1473 1331v-987h137v-111h-410v111h141v846q-63 -53 -159 -100l-25 114q114 56 203 127h113z" />
    <glyph glyph-name="uni249C" unicode="&#x249c;" 
d="M383 1776l51 -31q-152 -234 -218 -461.5t-66 -505.5t66 -505t218 -461l-51 -31q-171 253 -247.5 483t-76.5 514q0 285 76.5 515t247.5 483zM1614 1745l51 31q171 -253 247.5 -483t76.5 -515q0 -284 -76.5 -514t-247.5 -483l-51 31q152 234 218 461t66 505t-66 505.5
t-218 461.5zM793 977l-158 49q42 135 149.5 204.5t266.5 69.5q190 0 284.5 -85.5t94.5 -262.5v-383q0 -184 20 -340h-152q-13 63 -22 166q-130 -190 -358 -190q-150 0 -236 83.5t-86 221.5q0 283 344 344q137 23 328 33v55q0 126 -51 180t-170 54q-95 0 -161.5 -51
t-92.5 -148zM1268 537v235q-138 -2 -291 -33q-114 -24 -166.5 -78t-52.5 -143q0 -87 52 -137.5t148 -50.5q87 0 167.5 52.5t142.5 154.5z" />
    <glyph glyph-name="uni249D" unicode="&#x249d;" 
d="M383 1776l51 -31q-152 -234 -218 -461.5t-66 -505.5t66 -505t218 -461l-51 -31q-171 253 -247.5 483t-76.5 514q0 285 76.5 515t247.5 483zM1614 1745l51 31q171 -253 247.5 -483t76.5 -515q0 -284 -76.5 -514t-247.5 -483l-51 31q152 234 218 461t66 505t-66 505.5
t-218 461.5zM819 1579v-649q54 87 134.5 135.5t170.5 48.5q177 0 289.5 -145t112.5 -402q0 -252 -119 -401.5t-295 -149.5q-196 0 -305 193l-31 -166h-123v1536h166zM819 774v-428q102 -194 258 -194q122 0 200.5 108t78.5 305t-73.5 303.5t-192.5 106.5q-168 0 -271 -201z
" />
    <glyph glyph-name="uni249E" unicode="&#x249e;" 
d="M383 1776l51 -31q-152 -234 -218 -461.5t-66 -505.5t66 -505t218 -461l-51 -31q-171 253 -247.5 483t-76.5 514q0 285 76.5 515t247.5 483zM1614 1745l51 31q171 -253 247.5 -483t76.5 -515q0 -284 -76.5 -514t-247.5 -483l-51 31q152 234 218 461t66 505t-66 505.5
t-218 461.5zM1454 991l-164 -43q-23 112 -83 167.5t-150 55.5q-132 0 -207.5 -108t-75.5 -307q0 -200 75.5 -310t207.5 -110q102 0 162.5 56.5t83.5 172.5l157 -49q-43 -151 -146 -230t-259 -79q-208 0 -329.5 145.5t-121.5 399.5q0 253 123.5 402t327.5 149q152 0 256 -80
t143 -232z" />
    <glyph glyph-name="uni249F" unicode="&#x249f;" 
d="M383 1776l51 -31q-152 -234 -218 -461.5t-66 -505.5t66 -505t218 -461l-51 -31q-171 253 -247.5 483t-76.5 514q0 285 76.5 515t247.5 483zM1614 1745l51 31q171 -253 247.5 -483t76.5 -515q0 -284 -76.5 -514t-247.5 -483l-51 31q152 234 218 461t66 505t-66 505.5
t-218 461.5zM1409 1579v-1536h-162v154q-111 -181 -305 -181q-177 0 -292 149t-115 402q0 256 113.5 401.5t289.5 145.5q93 0 172 -46.5t133 -131.5v643h166zM1243 348v426q-100 201 -266 201q-120 0 -196 -106.5t-76 -303.5t79 -304t201 -107q154 0 258 194z" />
    <glyph glyph-name="uni24A0" unicode="&#x24a0;" 
d="M383 1776l51 -31q-152 -234 -218 -461.5t-66 -505.5t66 -505t218 -461l-51 -31q-171 253 -247.5 483t-76.5 514q0 285 76.5 515t247.5 483zM1614 1745l51 31q171 -253 247.5 -483t76.5 -515q0 -284 -76.5 -514t-247.5 -483l-51 31q152 234 218 461t66 505t-66 505.5
t-218 461.5zM1473 731h-734q0 -189 83 -294t225 -105q106 0 170.5 51.5t95.5 161.5l153 -51q-104 -287 -422 -287q-214 0 -340 146t-126 399q0 248 127 399.5t325 151.5q196 0 319.5 -144t123.5 -391v-37zM743 850h568q-12 157 -85 241.5t-194 84.5q-122 0 -200.5 -88.5
t-88.5 -237.5z" />
    <glyph glyph-name="uni24A1" unicode="&#x24a1;" 
d="M383 1776l51 -31q-152 -234 -218 -461.5t-66 -505.5t66 -505t218 -461l-51 -31q-171 253 -247.5 483t-76.5 514q0 285 76.5 515t247.5 483zM1614 1745l51 31q171 -253 247.5 -483t76.5 -515q0 -284 -76.5 -514t-247.5 -483l-51 31q152 234 218 461t66 505t-66 505.5
t-218 461.5zM1378 1540l-20 -125q-74 8 -127 8q-80 0 -116 -38t-36 -125v-199h271v-129h-271v-918h-164v918h-215v129h215v205q0 141 73 212.5t214 71.5q84 0 176 -10z" />
    <glyph glyph-name="uni24A2" unicode="&#x24a2;" 
d="M383 1776l51 -31q-152 -234 -218 -461.5t-66 -505.5t66 -505t218 -461l-51 -31q-171 253 -247.5 483t-76.5 514q0 285 76.5 515t247.5 483zM1614 1745l51 31q171 -253 247.5 -483t76.5 -515q0 -284 -76.5 -514t-247.5 -483l-51 31q152 234 218 461t66 505t-66 505.5
t-218 461.5zM1513 1559l-12 -144q-77 0 -121.5 -17t-87.5 -59q103 -89 103 -229q0 -155 -107.5 -248.5t-279.5 -93.5q-85 0 -158 31q-45 -26 -69.5 -57.5t-24.5 -59.5q0 -30 13 -47t56 -30.5t125 -22.5l211 -21q197 -19 276 -81.5t79 -172.5q0 -130 -130.5 -213.5
t-367.5 -83.5q-218 0 -339.5 68t-121.5 184q0 71 54.5 128t152.5 89q-156 37 -156 156q0 111 152 209q-66 44 -102.5 113.5t-36.5 152.5q0 149 111 244.5t276 95.5q118 0 206 -51q56 86 124.5 123t174.5 37zM1008 1337q-98 0 -165 -62.5t-67 -166.5t67 -166.5t165 -62.5
t164.5 62.5t66.5 166.5t-66.5 166.5t-164.5 62.5zM1128 428l-241 25q-185 -53 -185 -168q0 -81 87.5 -123.5t234.5 -42.5q162 0 252 48t90 120q0 40 -17.5 65.5t-71 45.5t-149.5 30z" />
    <glyph glyph-name="uni24A3" unicode="&#x24a3;" 
d="M383 1776l51 -31q-152 -234 -218 -461.5t-66 -505.5t66 -505t218 -461l-51 -31q-171 253 -247.5 483t-76.5 514q0 285 76.5 515t247.5 483zM1614 1745l51 31q171 -253 247.5 -483t76.5 -515q0 -284 -76.5 -514t-247.5 -483l-51 31q152 234 218 461t66 505t-66 505.5
t-218 461.5zM817 1579v-676q77 99 170 155t191 56q131 0 210.5 -81t79.5 -220v-770h-170v711q0 213 -176 213q-74 0 -154.5 -54.5t-150.5 -152.5v-717h-166v1536h166z" />
    <glyph glyph-name="uni24A4" unicode="&#x24a4;" 
d="M383 1776l51 -31q-152 -234 -218 -461.5t-66 -505.5t66 -505t218 -461l-51 -31q-171 253 -247.5 483t-76.5 514q0 285 76.5 515t247.5 483zM1614 1745l51 31q171 -253 247.5 -483t76.5 -515q0 -284 -76.5 -514t-247.5 -483l-51 31q152 234 218 461t66 505t-66 505.5
t-218 461.5zM1106 1112v-1046h-168v1046h168zM1122 1516v-199h-200v199h200z" />
    <glyph glyph-name="uni24A5" unicode="&#x24a5;" 
d="M383 1776l51 -31q-152 -234 -218 -461.5t-66 -505.5t66 -505t218 -461l-51 -31q-171 253 -247.5 483t-76.5 514q0 285 76.5 515t247.5 483zM1614 1745l51 31q171 -253 247.5 -483t76.5 -515q0 -284 -76.5 -514t-247.5 -483l-51 31q152 234 218 461t66 505t-66 505.5
t-218 461.5zM1153 1208v-975q0 -153 -80 -232t-229 -79q-70 0 -144 6l-12 125q43 -4 137 -4q162 0 162 205v954h166zM1171 1612v-197h-200v197h200z" />
    <glyph glyph-name="uni24A6" unicode="&#x24a6;" 
d="M383 1776l51 -31q-152 -234 -218 -461.5t-66 -505.5t66 -505t218 -461l-51 -31q-171 253 -247.5 483t-76.5 514q0 285 76.5 515t247.5 483zM1614 1745l51 31q171 -253 247.5 -483t76.5 -515q0 -284 -76.5 -514t-247.5 -483l-51 31q152 234 218 461t66 505t-66 505.5
t-218 461.5zM1518 1090l-359 -398l385 -649h-188l-309 539l-185 -197v-342h-164v1536h164v-1012l461 523h195z" />
    <glyph glyph-name="uni24A7" unicode="&#x24a7;" 
d="M383 1776l51 -31q-152 -234 -218 -461.5t-66 -505.5t66 -505t218 -461l-51 -31q-171 253 -247.5 483t-76.5 514q0 285 76.5 515t247.5 483zM1614 1745l51 31q171 -253 247.5 -483t76.5 -515q0 -284 -76.5 -514t-247.5 -483l-51 31q152 234 218 461t66 505t-66 505.5
t-218 461.5zM1106 1556v-1536h-166v1536h166z" />
    <glyph glyph-name="uni24A8" unicode="&#x24a8;" 
d="M383 1776l51 -31q-152 -234 -218 -461.5t-66 -505.5t66 -505t218 -461l-51 -31q-171 253 -247.5 483t-76.5 514q0 285 76.5 515t247.5 483zM1614 1745l51 31q171 -253 247.5 -483t76.5 -515q0 -284 -76.5 -514t-247.5 -483l-51 31q152 234 218 461t66 505t-66 505.5
t-218 461.5zM629 1280v-178q100 198 264 198q79 0 135 -55t68 -141q45 92 114 144t150 52q101 0 162 -78.5t61 -220.5v-770h-153v715q0 115 -27 166t-88 51q-60 0 -118 -57t-91 -154v-721h-152v715q0 117 -26 167t-86 50q-59 0 -115.5 -55t-93.5 -156v-721h-150v1049h146z
" />
    <glyph glyph-name="uni24A9" unicode="&#x24a9;" 
d="M383 1776l51 -31q-152 -234 -218 -461.5t-66 -505.5t66 -505t218 -461l-51 -31q-171 253 -247.5 483t-76.5 514q0 285 76.5 515t247.5 483zM1614 1745l51 31q171 -253 247.5 -483t76.5 -515q0 -284 -76.5 -514t-247.5 -483l-51 31q152 234 218 461t66 505t-66 505.5
t-218 461.5zM780 1280v-190q78 100 173 156.5t194 56.5q131 0 211 -79.5t80 -219.5v-771h-170v711q0 213 -176 213q-74 0 -155 -54t-151 -153v-717h-165v1047h159z" />
    <glyph glyph-name="uni24AA" unicode="&#x24aa;" 
d="M383 1776l51 -31q-152 -234 -218 -461.5t-66 -505.5t66 -505t218 -461l-51 -31q-171 253 -247.5 483t-76.5 514q0 285 76.5 515t247.5 483zM1614 1745l51 31q171 -253 247.5 -483t76.5 -515q0 -284 -76.5 -514t-247.5 -483l-51 31q152 234 218 461t66 505t-66 505.5
t-218 461.5zM1024 1303q199 0 324 -147.5t125 -397.5q0 -251 -125 -401t-326 -150t-325 147.5t-124 397.5q0 251 125 401t326 150zM1024 1174q-133 0 -207 -109t-74 -309q0 -201 74 -310.5t205 -109.5q132 0 206.5 109t74.5 311q0 200 -74 309t-205 109z" />
    <glyph glyph-name="uni24AB" unicode="&#x24ab;" 
d="M383 1776l51 -31q-152 -234 -218 -461.5t-66 -505.5t66 -505t218 -461l-51 -31q-171 253 -247.5 483t-76.5 514q0 285 76.5 515t247.5 483zM1614 1745l51 31q171 -253 247.5 -483t76.5 -515q0 -284 -76.5 -514t-247.5 -483l-51 31q152 234 218 461t66 505t-66 505.5
t-218 461.5zM819 1434v-164q56 90 137.5 138t171.5 48q178 0 291 -144.5t113 -398.5q0 -127 -32.5 -232t-88.5 -174.5t-131.5 -107t-161.5 -37.5q-99 0 -169.5 45t-123.5 138v-529h-166v1418h160zM825 1120v-428q102 -194 258 -194q122 0 200.5 107t78.5 304q0 198 -74 305
t-192 107q-168 0 -271 -201z" />
    <glyph glyph-name="uni24AC" unicode="&#x24ac;" 
d="M383 1776l51 -31q-152 -234 -218 -461.5t-66 -505.5t66 -505t218 -461l-51 -31q-171 253 -247.5 483t-76.5 514q0 285 76.5 515t247.5 483zM1614 1745l51 31q171 -253 247.5 -483t76.5 -515q0 -284 -76.5 -514t-247.5 -483l-51 31q152 234 218 461t66 505t-66 505.5
t-218 461.5zM1409 1434v-1418h-166v523q-106 -177 -299 -177q-180 0 -294.5 147.5t-114.5 403.5q0 254 113.5 398.5t289.5 144.5q99 0 179 -47t134 -137l33 162h125zM1243 692v428q-50 100 -118.5 150.5t-147.5 50.5q-120 0 -196 -107.5t-76 -304.5t79 -304t203 -107
q152 0 256 194z" />
    <glyph glyph-name="uni24AD" unicode="&#x24ad;" 
d="M383 1776l51 -31q-152 -234 -218 -461.5t-66 -505.5t66 -505t218 -461l-51 -31q-171 253 -247.5 483t-76.5 514q0 285 76.5 515t247.5 483zM1614 1745l51 31q171 -253 247.5 -483t76.5 -515q0 -284 -76.5 -514t-247.5 -483l-51 31q152 234 218 461t66 505t-66 505.5
t-218 461.5zM1403 1300l-12 -161q-121 0 -228 -79.5t-170 -228.5v-600h-166v1047h160v-266q71 145 179.5 216.5t236.5 71.5z" />
    <glyph glyph-name="uni24AE" unicode="&#x24ae;" 
d="M383 1776l51 -31q-152 -234 -218 -461.5t-66 -505.5t66 -505t218 -461l-51 -31q-171 253 -247.5 483t-76.5 514q0 285 76.5 515t247.5 483zM1614 1745l51 31q171 -253 247.5 -483t76.5 -515q0 -284 -76.5 -514t-247.5 -483l-51 31q152 234 218 461t66 505t-66 505.5
t-218 461.5zM1411 1051l-160 -52q-53 181 -235 181q-104 0 -162.5 -41.5t-58.5 -108.5q0 -75 45.5 -112.5t177.5 -69.5l84 -21q186 -45 261 -113t75 -196q0 -139 -105.5 -225t-306.5 -86q-331 0 -424 254l162 57q61 -188 266 -188q126 0 186 48.5t60 123.5q0 58 -18.5 91
t-68.5 57t-151 46l-84 19q-178 39 -246.5 108t-68.5 195t98 205.5t281 79.5q302 0 393 -252z" />
    <glyph glyph-name="uni24AF" unicode="&#x24af;" 
d="M383 1776l51 -31q-152 -234 -218 -461.5t-66 -505.5t66 -505t218 -461l-51 -31q-171 253 -247.5 483t-76.5 514q0 285 76.5 515t247.5 483zM1614 1745l51 31q171 -253 247.5 -483t76.5 -515q0 -284 -76.5 -514t-247.5 -483l-51 31q152 234 218 461t66 505t-66 505.5
t-218 461.5zM1065 1532v-363h285v-129h-285v-645q0 -170 145 -170q92 0 166 13l-8 -129q-94 -11 -197 -11q-270 0 -270 267v675h-201v129h201v326z" />
    <glyph glyph-name="uni24B0" unicode="&#x24b0;" 
d="M383 1776l51 -31q-152 -234 -218 -461.5t-66 -505.5t66 -505t218 -461l-51 -31q-171 253 -247.5 483t-76.5 514q0 285 76.5 515t247.5 483zM1614 1745l51 31q171 -253 247.5 -483t76.5 -515q0 -284 -76.5 -514t-247.5 -483l-51 31q152 234 218 461t66 505t-66 505.5
t-218 461.5zM1436 1278v-1047h-160v193q-63 -100 -160.5 -158.5t-204.5 -58.5q-129 0 -211 77.5t-82 219.5v774h170v-723q0 -203 181 -203q80 0 163.5 58.5t137.5 152.5v715h166z" />
    <glyph glyph-name="uni24B1" unicode="&#x24b1;" 
d="M383 1776l51 -31q-152 -234 -218 -461.5t-66 -505.5t66 -505t218 -461l-51 -31q-171 253 -247.5 483t-76.5 514q0 285 76.5 515t247.5 483zM1614 1745l51 31q171 -253 247.5 -483t76.5 -515q0 -284 -76.5 -514t-247.5 -483l-51 31q152 234 218 461t66 505t-66 505.5
t-218 461.5zM1464 1260l-336 -1047h-206l-336 1047h180l160 -574q15 -53 29 -108t31 -122t28 -108h30q18 61 47 173.5t46 170.5l159 568h168z" />
    <glyph glyph-name="uni24B2" unicode="&#x24b2;" 
d="M383 1776l51 -31q-152 -234 -218 -461.5t-66 -505.5t66 -505t218 -461l-51 -31q-171 253 -247.5 483t-76.5 514q0 285 76.5 515t247.5 483zM1614 1745l51 31q171 -253 247.5 -483t76.5 -515q0 -284 -76.5 -514t-247.5 -483l-51 31q152 234 218 461t66 505t-66 505.5
t-218 461.5zM1675 1260l-260 -1049h-196l-119 588q-11 52 -30 154.5t-32 160.5h-32q-26 -175 -56 -317l-119 -586h-196l-258 1049h160l120 -586q14 -63 33 -165.5t29 -150.5h33q10 49 19.5 100.5t20 112.5t17.5 99l117 590h204l115 -580q59 -304 62 -322h32
q12 59 31.5 160.5t30.5 153.5l121 588h153z" />
    <glyph glyph-name="uni24B3" unicode="&#x24b3;" 
d="M383 1776l51 -31q-152 -234 -218 -461.5t-66 -505.5t66 -505t218 -461l-51 -31q-171 253 -247.5 483t-76.5 514q0 285 76.5 515t247.5 483zM1614 1745l51 31q171 -253 247.5 -483t76.5 -515q0 -284 -76.5 -514t-247.5 -483l-51 31q152 234 218 461t66 505t-66 505.5
t-218 461.5zM1444 1278l-326 -506l350 -541h-184l-209 338q-5 9 -24 40t-29 50q-10 -17 -27 -46t-24 -42l-201 -340h-180l340 537l-328 510h184l189 -311q27 -49 55 -90q32 46 55 94l179 307h180z" />
    <glyph glyph-name="uni24B4" unicode="&#x24b4;" 
d="M383 1776l51 -31q-152 -234 -218 -461.5t-66 -505.5t66 -505t218 -461l-51 -31q-171 253 -247.5 483t-76.5 514q0 285 76.5 515t247.5 483zM1614 1745l51 31q171 -253 247.5 -483t76.5 -515q0 -284 -76.5 -514t-247.5 -483l-51 31q152 234 218 461t66 505t-66 505.5
t-218 461.5zM1477 1434l-381 -1096q-60 -174 -152 -248t-235 -74q-45 0 -101 9l-10 137q62 -12 109 -12q86 0 143.5 49t93.5 159l17 50l-363 1026h178l185 -594q12 -39 23.5 -81t25 -93t22.5 -82h21q6 21 31.5 115t41.5 145l181 590h170z" />
    <glyph glyph-name="uni24B5" unicode="&#x24b5;" 
d="M383 1776l51 -31q-152 -234 -218 -461.5t-66 -505.5t66 -505t218 -461l-51 -31q-171 253 -247.5 483t-76.5 514q0 285 76.5 515t247.5 483zM1614 1745l51 31q171 -253 247.5 -483t76.5 -515q0 -284 -76.5 -514t-247.5 -483l-51 31q152 234 218 461t66 505t-66 505.5
t-218 461.5zM1401 1278v-109l-582 -815h596v-123h-784v111l579 811h-546v125h737z" />
    <glyph glyph-name="Japan1.8184" 
d="M594 1688v-824h178v-102h-500v102h193v697q-69 -52 -189 -91l-22 107q126 41 231 111h109zM1364 535l-131 26q23 122 103.5 187t201.5 65q131 0 212 -65t81 -179q0 -85 -41 -147.5t-166 -163.5q-108 -86 -165.5 -147.5t-92.5 -124.5h469v-107h-612v94q47 90 117 172
t180 174q102 87 136 138.5t34 111.5q0 66 -41.5 104t-110.5 38q-71 0 -116.5 -44.5t-57.5 -131.5zM346 -156l-65 47l1423 1819l63 -45z" />
    <glyph glyph-name="Japan1.8185" 
d="M598 1688v-824h178v-102h-500v102h193v697q-70 -52 -188 -91l-23 107q126 41 231 111h109zM1638 807v-612h140v-101h-140v-215h-122v215h-396v94l348 619h170zM1516 195v297q0 105 6 219h-15q-64 -139 -92 -189l-180 -327h281zM387 -156l-65 47l1423 1819l63 -45z" />
    <glyph glyph-name="uni24EA" unicode="&#x24ea;" 
d="M1028 1391q387 0 387 -607q0 -311 -101 -463.5t-290 -152.5q-188 0 -288.5 151.5t-100.5 462.5q0 310 102 459.5t291 149.5zM1028 1270q-121 0 -179 -115t-58 -371q0 -259 56.5 -377t176.5 -118t178 118t58 375q0 258 -56.5 373t-175.5 115zM1024 1755q199 0 379.5 -77.5
t311.5 -208.5t208.5 -311.5t77.5 -379.5t-77.5 -379.5t-208.5 -311.5t-311.5 -208.5t-379.5 -77.5t-379.5 77.5t-311.5 208.5t-208.5 311.5t-77.5 379.5t77.5 379.5t208.5 311.5t311.5 208.5t379.5 77.5zM1024 1688q-184 0 -352.5 -72.5t-290 -194.5t-194 -290.5
t-72.5 -352.5t72.5 -352.5t194 -290t290 -194t352.5 -72.5t352.5 72.5t290 194t194 290t72.5 352.5t-72.5 352.5t-194 290.5t-290 194.5t-352.5 72.5z" />
    <glyph glyph-name="uni216A" unicode="&#x216a;" 
d="M1729 1546v-1509h-170v1509h170zM1311 1546l-459 -725l485 -784h-200l-334 549q-23 45 -60 98q-35 -59 -57 -98l-330 -549h-188l481 778l-448 731h200l295 -491q18 -35 64 -109q14 20 34.5 59t30.5 54l297 487h189z" />
    <glyph glyph-name="uni216B" unicode="&#x216b;" 
d="M868 37l-239 526q-18 39 -54 121q-32 -76 -53 -125l-235 -522h-181l375 776l-340 733h193l203 -471q41 -97 55 -133q24 56 59 137l205 467h180l-352 -729l377 -780h-193zM1411 1546v-1509h-162v1509h162zM1829 1546v-1509h-162v1509h162z" />
    <glyph glyph-name="Japan1.8227" 
d="M383 1776l51 -31q-152 -234 -218 -461.5t-66 -505.5t66 -505t218 -461l-51 -31q-171 253 -247.5 483t-76.5 514q0 285 76.5 515t247.5 483zM1614 1745l51 31q171 -253 247.5 -483t76.5 -515q0 -284 -76.5 -514t-247.5 -483l-51 31q152 234 218 461t66 505t-66 505.5
t-218 461.5zM1028 1546q221 0 334 -182t113 -578q0 -399 -114 -587.5t-337 -188.5t-336 186.5t-113 585.5q0 395 115.5 579.5t337.5 184.5zM1028 1405q-94 0 -153.5 -58.5t-92 -197t-32.5 -365.5q0 -338 66.5 -485t207.5 -147q95 0 155 62t90.5 202t30.5 368t-30 365.5
t-89 196.5t-153 59z" />
    <glyph glyph-name="Japan1.8228" 
d="M1358 1399l92 147l78 -43l-119 -188q92 -186 92 -529q0 -399 -121 -587.5t-358 -188.5q-218 0 -332 152l-98 -156l-78 43l123 197q-92 189 -92 536q0 395 122.5 579.5t358.5 184.5q214 0 332 -147zM750 426l512 819q-69 160 -236 160q-104 0 -170 -58.5t-101.5 -197
t-35.5 -365.5q0 -215 31 -358zM1298 1135l-514 -820q72 -163 238 -163q157 0 231 147t74 485q0 206 -29 351z" />
    <glyph glyph-name="uni2776" unicode="&#x2776;" 
d="M1024 1755q199 0 379.5 -77.5t311.5 -208.5t208.5 -311.5t77.5 -379.5t-77.5 -379.5t-208.5 -311.5t-311.5 -208.5t-379.5 -77.5t-379.5 77.5t-311.5 208.5t-208.5 311.5t-77.5 379.5t77.5 379.5t208.5 311.5t311.5 208.5t379.5 77.5zM1155 1413h-164q-124 -90 -317 -153
l33 -164q157 53 254 116v-897h-263v-155h703v155h-246v1098z" />
    <glyph glyph-name="uni2777" unicode="&#x2777;" 
d="M1024 1755q199 0 379.5 -77.5t311.5 -208.5t208.5 -311.5t77.5 -379.5t-77.5 -379.5t-208.5 -311.5t-311.5 -208.5t-379.5 -77.5t-379.5 77.5t-311.5 208.5t-208.5 311.5t-77.5 379.5t77.5 379.5t208.5 311.5t311.5 208.5t379.5 77.5zM614 1085l197 -41q12 112 68 171
t147 59q86 0 136 -47.5t50 -130.5q0 -74 -44.5 -142.5t-174.5 -187.5q-147 -125 -237 -231.5t-154 -227.5v-143h830v162h-615q42 74 113 146.5t221 201.5q161 137 218.5 223t57.5 199q0 156 -110.5 245t-290.5 89q-166 0 -275 -90.5t-137 -254.5z" />
    <glyph glyph-name="uni2778" unicode="&#x2778;" 
d="M1024 1755q199 0 379.5 -77.5t311.5 -208.5t208.5 -311.5t77.5 -379.5t-77.5 -379.5t-208.5 -311.5t-311.5 -208.5t-379.5 -77.5t-379.5 77.5t-311.5 208.5t-208.5 311.5t-77.5 379.5t77.5 379.5t208.5 311.5t311.5 208.5t379.5 77.5zM608 1157l187 -57q54 170 217 170
q85 0 137.5 -47t52.5 -129q0 -96 -65 -149.5t-191 -53.5h-88v-162h100q265 0 265 -229q0 -97 -57 -154t-150 -57q-190 0 -238 176l-190 -59q92 -273 426 -273q190 0 307 101t117 268q0 126 -72.5 206.5t-212.5 106.5v14q122 25 189 97.5t67 183.5q0 139 -108 226t-287 87
q-154 0 -258.5 -68.5t-147.5 -197.5z" />
    <glyph glyph-name="uni2779" unicode="&#x2779;" 
d="M1063 594h-354l190 356q63 111 154 314h20q-10 -292 -10 -377v-293zM1024 1755q199 0 379.5 -77.5t311.5 -208.5t208.5 -311.5t77.5 -379.5t-77.5 -379.5t-208.5 -311.5t-311.5 -208.5t-379.5 -77.5t-379.5 77.5t-311.5 208.5t-208.5 311.5t-77.5 379.5t77.5 379.5
t208.5 311.5t311.5 208.5t379.5 77.5zM1245 1409h-254l-452 -823v-144h524v-286h182v286h182v152h-182v815z" />
    <glyph glyph-name="uni277A" unicode="&#x277a;" 
d="M1024 1755q199 0 379.5 -77.5t311.5 -208.5t208.5 -311.5t77.5 -379.5t-77.5 -379.5t-208.5 -311.5t-311.5 -208.5t-379.5 -77.5t-379.5 77.5t-311.5 208.5t-208.5 311.5t-77.5 379.5t77.5 379.5t208.5 311.5t311.5 208.5t379.5 77.5zM1389 1401h-705l-33 -699l172 -22
q27 66 79 103.5t124 37.5q95 0 150 -68.5t55 -193.5q0 -126 -58 -199t-157 -73q-162 0 -209 174l-197 -66q87 -264 408 -264q191 0 308.5 118t117.5 316q0 187 -104.5 298.5t-272.5 111.5q-75 0 -138.5 -30.5t-101.5 -84.5q9 79 11 117l16 260h535v164z" />
    <glyph glyph-name="uni277B" unicode="&#x277b;" 
d="M821 657q41 78 100.5 120t127.5 42q89 0 141.5 -67t52.5 -191q0 -132 -53.5 -203t-147.5 -71q-104 0 -162.5 91.5t-58.5 278.5zM1024 1755q199 0 379.5 -77.5t311.5 -208.5t208.5 -311.5t77.5 -379.5t-77.5 -379.5t-208.5 -311.5t-311.5 -208.5t-379.5 -77.5t-379.5 77.5
t-311.5 208.5t-208.5 311.5t-77.5 379.5t77.5 379.5t208.5 311.5t311.5 208.5t379.5 77.5zM1233 1153l188 70q-88 200 -346 200q-220 0 -341.5 -170t-121.5 -524q0 -302 115 -449t315 -147q182 0 296 119t114 315q0 187 -98 295.5t-254 108.5q-176 0 -283 -154
q8 224 69.5 338.5t184.5 114.5q118 0 162 -117z" />
    <glyph glyph-name="uni277C" unicode="&#x277c;" 
d="M1024 1755q199 0 379.5 -77.5t311.5 -208.5t208.5 -311.5t77.5 -379.5t-77.5 -379.5t-208.5 -311.5t-311.5 -208.5t-379.5 -77.5t-379.5 77.5t-311.5 208.5t-208.5 311.5t-77.5 379.5t77.5 379.5t208.5 311.5t311.5 208.5t379.5 77.5zM1438 1370h-826v-164h627
q-179 -255 -277 -506t-131 -569h234q24 325 112.5 580.5t260.5 515.5v143z" />
    <glyph glyph-name="uni277D" unicode="&#x277d;" 
d="M1061 877l-45 18q-113 49 -152 94.5t-39 114.5q0 81 53.5 126.5t145.5 45.5q93 0 150 -46t57 -128q0 -79 -38 -131t-132 -94zM987 725l47 -20q129 -59 178.5 -109t49.5 -123q0 -88 -65 -139t-175 -51q-105 0 -169.5 55t-64.5 145q0 81 46.5 136t152.5 106zM1024 1755
q199 0 379.5 -77.5t311.5 -208.5t208.5 -311.5t77.5 -379.5t-77.5 -379.5t-208.5 -311.5t-311.5 -208.5t-379.5 -77.5t-379.5 77.5t-311.5 208.5t-208.5 311.5t-77.5 379.5t77.5 379.5t208.5 311.5t311.5 208.5t379.5 77.5zM1184 819q239 91 239 291q0 139 -112 226t-287 87
q-178 0 -287.5 -90t-109.5 -231q0 -107 54 -180t181 -134q-142 -62 -205 -134.5t-63 -178.5q0 -162 115.5 -252t316.5 -90q194 0 313 95t119 251q0 122 -62 200t-212 140z" />
    <glyph glyph-name="uni277E" unicode="&#x277e;" 
d="M1251 901q-89 -160 -229 -160q-91 0 -143 65.5t-52 188.5q0 128 51 201.5t150 73.5q107 0 163.5 -93.5t59.5 -275.5zM1024 1755q199 0 379.5 -77.5t311.5 -208.5t208.5 -311.5t77.5 -379.5t-77.5 -379.5t-208.5 -311.5t-311.5 -208.5t-379.5 -77.5t-379.5 77.5
t-311.5 208.5t-208.5 311.5t-77.5 379.5t77.5 379.5t208.5 311.5t311.5 208.5t379.5 77.5zM844 406l-195 -74q93 -199 344 -199q219 0 339 169.5t120 522.5q0 301 -115.5 449.5t-318.5 148.5q-179 0 -291.5 -119t-112.5 -311q0 -186 100.5 -294.5t260.5 -108.5
q184 0 282 149q-8 -452 -258 -452q-112 0 -155 119z" />
    <glyph glyph-name="Japan1.8295" 
d="M834 1546l-273 -725l299 -784h-180l-193 561q-4 12 -32 98q-10 -39 -31 -102l-184 -557h-168l286 778l-254 731h181l151 -504q1 -5 13 -45.5t18 -62.5q6 19 18 56t19 57l162 499h168zM1509 1546v-1509h-153v1509h153zM1864 1546v-1509h-154v1509h154zM1155 1546v-1509
h-154v1509h154z" />
    <glyph glyph-name="Japan1.8296" 
d="M807 1546l-250 -725l274 -784h-176l-176 559l-28 98q-8 -36 -29 -100l-176 -557h-166l274 778l-241 731h176l143 -497q5 -19 15.5 -57t15.5 -56q28 89 35 115l143 495h166zM1968 1546l-248 -1509h-219l-244 1509h170l115 -856q13 -93 31 -251.5t29 -237.5h32
q7 57 17.5 153t20 176t20.5 158l114 858h162zM1120 1546v-1509h-151v1509h151z" />
    <glyph glyph-name="Japan1.8297" 
d="M782 37l-211 528q-7 19 -21 58.5t-22 60.5q-8 -21 -47 -123l-211 -524h-178l340 776l-315 733h190l185 -473q8 -20 24.5 -65t24.5 -66q8 21 26.5 68t26.5 67l184 469h178l-321 -729l338 -780h-191zM1952 1546l-324 -1509h-223l-322 1509h181l166 -897q20 -109 75 -448h37
q46 299 74 448l170 897h166z" />
    <glyph glyph-name="uni217A" unicode="&#x217a;" 
d="M1184 1083l-320 -505l344 -541h-180l-205 338q-5 9 -24 40t-29 50q-6 -10 -23.5 -40.5t-25.5 -47.5l-197 -340h-178l334 536l-322 510h181l186 -311q21 -44 53 -90q12 17 30.5 51.5t22.5 42.5l177 307h176zM1579 1083v-1046h-158v1046h158zM1595 1487v-199h-190v199h190z
" />
    <glyph glyph-name="uni217B" unicode="&#x217b;" 
d="M1022 1083l-305 -505l330 -541h-177l-194 340q-36 65 -51 90q-11 -20 -26 -48.5t-21 -39.5l-185 -342h-174l316 536l-306 510h177l174 -313q23 -44 53 -94q50 92 53 98l164 309h172zM1378 1083v-1046h-153v1046h153zM1395 1487v-199h-187v199h187zM1765 1083v-1046h-153
v1046h153zM1782 1487v-199h-187v199h187z" />
    <glyph glyph-name="Japan1.8300" 
d="M864 1083l-272 -508l299 -538h-172l-176 342q-21 41 -45 90q-18 -44 -41 -90l-164 -342h-170l287 536l-279 510h172l158 -313l47 -94q27 56 45 98l143 309h168zM1182 1083v-1046h-146v1046h146zM1198 1487v-199h-178v199h178zM1518 1083v-1046h-146v1046h146zM1534 1487
v-199h-178v199h178zM1853 1083v-1046h-145v1046h145zM1870 1487v-199h-178v199h178z" />
    <glyph glyph-name="Japan1.8301" 
d="M797 1083l-265 -510l295 -536h-168l-178 342q-5 11 -43 88q-11 -27 -39 -88l-163 -342h-166l280 532l-276 514h168l159 -321q8 -17 24 -46.5t24 -45.5l43 98l141 315h164zM1980 1083l-278 -1046h-203l-276 1046h159l134 -577q12 -52 69 -330h35q5 22 31.5 144.5
t42.5 191.5l133 571h153zM1096 1083v-1046h-144v1046h144zM1112 1487v-199h-176v199h176z" />
    <glyph glyph-name="Japan1.8302" 
d="M952 1083l-309 -505l336 -541h-174l-199 336q-7 13 -24 42.5t-27 47.5q-10 -18 -26.5 -47.5t-22.5 -40.5l-193 -338h-166l324 536l-313 510h174l180 -309q9 -15 25.5 -45.5t25.5 -46.5q4 6 53 96l170 305h166zM1909 1083l-324 -1046h-194l-322 1046h168l170 -604
q19 -66 42.5 -173t29.5 -130h32q10 39 33 143.5t39 163.5l166 600h160z" />
    <glyph glyph-name="Japan1.9780" unicode="&#x2189;" 
d="M346 -156l-65 47l1423 1819l63 -45zM510 1698q315 0 315 -475q0 -243 -82 -362.5t-235 -119.5q-315 0 -315 480q0 243 82.5 360t234.5 117zM510 1593q-89 0 -132.5 -86.5t-43.5 -283.5q-1 -199 42 -288t132 -89q90 0 133 89t43 288t-42 284.5t-132 85.5zM1354 582
l-125 39q68 192 297 192q130 0 211.5 -64.5t81.5 -166.5q0 -81 -51.5 -136.5t-141.5 -74.5v-6q104 -22 158.5 -82.5t54.5 -153.5q0 -122 -86 -196t-227 -74q-123 0 -200 47t-116 149l129 39q41 -133 189 -133q76 0 123 46t47 122q0 85 -53.5 131.5t-161.5 46.5h-74v107h66
q100 0 152 41.5t52 117.5q0 65 -43 102.5t-112 37.5q-131 0 -170 -131z" />
    <glyph glyph-name="Japan1.9781" 
d="M594 1688v-824h178v-102h-500v102h193v697q-69 -52 -189 -91l-22 107q126 41 231 111h109zM1354 582l-125 39q68 192 297 192q130 0 211.5 -64.5t81.5 -166.5q0 -81 -51.5 -136.5t-141.5 -74.5v-6q104 -22 158.5 -82.5t54.5 -153.5q0 -122 -86 -196t-227 -74
q-123 0 -200 47t-116 149l129 39q41 -133 189 -133q76 0 123 46t47 122q0 85 -53.5 131.5t-161.5 46.5h-74v107h66q100 0 152 41.5t52 117.5q0 65 -43 102.5t-112 37.5q-131 0 -170 -131zM346 -156l-65 47l1423 1819l63 -45z" />
    <glyph glyph-name="Japan1.9782" 
d="M1354 582l-125 39q68 192 297 192q130 0 211.5 -64.5t81.5 -166.5q0 -81 -51.5 -136.5t-141.5 -74.5v-6q104 -22 158.5 -82.5t54.5 -153.5q0 -122 -86 -196t-227 -74q-123 0 -200 47t-116 149l129 39q41 -133 189 -133q76 0 123 46t47 122q0 85 -53.5 131.5t-161.5 46.5
h-74v107h66q100 0 152 41.5t52 117.5q0 65 -43 102.5t-112 37.5q-131 0 -170 -131zM324 1417l-131 27q23 122 103.5 187t201.5 65q131 0 212 -65t81 -179q0 -85 -41 -147.5t-166 -163.5q-107 -85 -165 -147t-93 -126h469v-106h-613v94q47 90 117 172t180 174
q102 87 136 138.5t34 111.5q0 66 -41 103.5t-110 37.5q-71 0 -116.5 -44.5t-57.5 -131.5zM346 -156l-65 47l1423 1819l63 -45z" />
    <glyph glyph-name="Japan1.9783" 
d="M1638 807v-612h140v-101h-140v-215h-122v215h-396v94l348 619h170zM1516 195v297q0 105 6 219h-15q-64 -139 -92 -189l-180 -327h281zM365 1466l-125 39q68 193 297 193q130 0 211 -65t81 -167q0 -81 -51 -136.5t-141 -74.5v-6q104 -22 158.5 -82t54.5 -153
q0 -122 -86 -196.5t-227 -74.5q-122 0 -199.5 47.5t-116.5 149.5l129 39q41 -133 189 -133q76 0 123 46t47 122q0 85 -53.5 131.5t-161.5 46.5h-74v106h65q100 0 152.5 42t52.5 118q0 65 -43 102t-112 37q-131 0 -170 -131zM408 -156l-66 47l1423 1819l64 -45z" />
    <glyph glyph-name="Japan1.9784" 
d="M594 1688v-824h178v-102h-500v102h193v697q-69 -52 -189 -91l-22 107q126 41 231 111h109zM1788 795v-107h-402l-10 -207q-3 -39 -10 -92q30 40 79 64t105 24q123 0 203 -82t80 -217q0 -146 -88 -232.5t-227 -86.5q-231 0 -297 188l127 43q20 -66 64 -98.5t104 -32.5
q79 0 126.5 58t47.5 157q0 94 -45 148.5t-121 54.5q-55 0 -96.5 -30t-63.5 -85l-115 17l25 516h514zM346 -156l-65 47l1423 1819l63 -45z" />
    <glyph glyph-name="uni2156" unicode="&#x2156;" 
d="M324 1417l-131 27q23 122 103.5 187t201.5 65q131 0 212 -65t81 -179q0 -85 -41 -147.5t-166 -163.5q-107 -85 -165 -147t-93 -126h469v-106h-613v94q47 90 117 172t180 174q102 87 136 138.5t34 111.5q0 66 -41 103.5t-110 37.5q-71 0 -116.5 -44.5t-57.5 -131.5z
M1788 795v-107h-402l-10 -207q-3 -39 -10 -92q30 40 79 64t105 24q123 0 203 -82t80 -217q0 -146 -88 -232.5t-227 -86.5q-231 0 -297 188l127 43q20 -66 64 -98.5t104 -32.5q79 0 126.5 58t47.5 157q0 94 -45 148.5t-121 54.5q-55 0 -96.5 -30t-63.5 -85l-115 17l25 516
h514zM346 -156l-65 47l1423 1819l63 -45z" />
    <glyph glyph-name="uni2157" unicode="&#x2157;" 
d="M324 1466l-125 39q68 193 297 193q130 0 211 -65t81 -167q0 -81 -51 -136.5t-141 -74.5v-6q104 -22 158.5 -82t54.5 -153q0 -122 -86 -196.5t-227 -74.5q-122 0 -199.5 47.5t-116.5 149.5l129 39q41 -133 189 -133q76 0 123 46t47 122q0 85 -53.5 131.5t-161.5 46.5h-74
v106h65q100 0 152.5 42t52.5 118q0 65 -43 102t-112 37q-131 0 -170 -131zM1788 795v-107h-402l-10 -207q-3 -39 -10 -92q30 40 79 64t105 24q123 0 203 -82t80 -217q0 -146 -88 -232.5t-227 -86.5q-231 0 -297 188l127 43q20 -66 64 -98.5t104 -32.5q79 0 126.5 58
t47.5 157q0 94 -45 148.5t-121 54.5q-55 0 -96.5 -30t-63.5 -85l-115 17l25 516h514zM346 -156l-65 47l1423 1819l63 -45z" />
    <glyph glyph-name="uni2158" unicode="&#x2158;" 
d="M690 1690v-613h139v-100h-139v-215h-123v215h-395v94l348 619h170zM567 1077v297q0 105 6 219h-14q-61 -134 -92 -188l-180 -328h280zM1788 795v-107h-402l-10 -207q-3 -39 -10 -92q30 40 79 64t105 24q123 0 203 -82t80 -217q0 -146 -88 -232.5t-227 -86.5
q-231 0 -297 188l127 43q20 -66 64 -98.5t104 -32.5q79 0 126.5 58t47.5 157q0 94 -45 148.5t-121 54.5q-55 0 -96.5 -30t-63.5 -85l-115 17l25 516h514zM346 -156l-65 47l1423 1819l63 -45z" />
    <glyph glyph-name="uni2159" unicode="&#x2159;" 
d="M594 1688v-824h178v-102h-500v102h193v697q-69 -52 -189 -91l-22 107q126 41 231 111h109zM1835 672l-127 -45q-36 86 -129 86q-200 0 -209 -359q82 119 223 119q116 0 189 -79.5t73 -213.5q0 -145 -83.5 -233t-215.5 -88q-146 0 -231.5 109.5t-85.5 328.5q0 262 90 390
t254 128q181 0 252 -143zM1372 248q0 -145 49 -216t133 -71q76 0 120 56t44 159q0 96 -42 148.5t-115 52.5q-53 0 -103 -33.5t-86 -95.5zM387 -156l-65 47l1423 1819l63 -45z" />
    <glyph glyph-name="uni215A" unicode="&#x215a;" 
d="M1835 672l-127 -45q-36 86 -129 86q-200 0 -209 -359q82 119 223 119q116 0 189 -79.5t73 -213.5q0 -145 -83.5 -233t-215.5 -88q-146 0 -231.5 109.5t-85.5 328.5q0 262 90 390t254 128q181 0 252 -143zM1372 248q0 -145 49 -216t133 -71q76 0 120 56t44 159
q0 96 -42 148.5t-115 52.5q-53 0 -103 -33.5t-86 -95.5zM758 1677v-106h-402l-10 -207q-3 -39 -10 -92q30 40 79 64t105 24q123 0 203 -82t80 -217q0 -146 -88.5 -233t-227.5 -87q-231 0 -297 189l127 43q20 -66 64 -98.5t104 -32.5q79 0 126.5 58t47.5 157q0 95 -44.5 149
t-120.5 54q-55 0 -96.5 -30t-63.5 -85l-115 16l25 516h514zM346 -156l-65 47l1423 1819l63 -45z" />
    <glyph glyph-name="Japan1.9790" unicode="&#x2150;" 
d="M594 1688v-824h178v-102h-500v102h193v697q-69 -52 -189 -91l-22 107q126 41 231 111h109zM1858 795v-97q-130 -194 -197.5 -385.5t-87.5 -433.5h-156q25 237 99 426.5t208 378.5h-475v111h609zM334 -156l-66 47l1424 1819l63 -45z" />
    <glyph glyph-name="Japan1.9791" 
d="M324 1417l-131 27q23 122 103.5 187t201.5 65q131 0 212 -65t81 -179q0 -85 -41 -147.5t-166 -163.5q-107 -85 -165 -147t-93 -126h469v-106h-613v94q47 90 117 172t180 174q102 87 136 138.5t34 111.5q0 66 -41 103.5t-110 37.5q-71 0 -116.5 -44.5t-57.5 -131.5z
M1858 795v-97q-130 -194 -197.5 -385.5t-87.5 -433.5h-156q25 237 99 426.5t208 378.5h-475v111h609zM346 -156l-65 47l1423 1819l63 -45z" />
    <glyph glyph-name="Japan1.9792" 
d="M324 1466l-125 39q68 193 297 193q130 0 211 -65t81 -167q0 -81 -51 -136.5t-141 -74.5v-6q104 -22 158.5 -82t54.5 -153q0 -122 -86 -196.5t-227 -74.5q-122 0 -199.5 47.5t-116.5 149.5l129 39q41 -133 189 -133q76 0 123 46t47 122q0 85 -53.5 131.5t-161.5 46.5h-74
v106h65q100 0 152.5 42t52.5 118q0 65 -43 102t-112 37q-131 0 -170 -131zM1858 795v-97q-130 -194 -197.5 -385.5t-87.5 -433.5h-156q25 237 99 426.5t208 378.5h-475v111h609zM326 -156l-66 47l1423 1819l64 -45z" />
    <glyph glyph-name="Japan1.9793" 
d="M690 1690v-613h139v-100h-139v-215h-123v215h-395v94l348 619h170zM567 1077v297q0 105 6 219h-14q-61 -134 -92 -188l-180 -328h280zM1858 795v-97q-130 -194 -197.5 -385.5t-87.5 -433.5h-156q25 237 99 426.5t208 378.5h-475v111h609zM326 -156l-66 47l1423 1819
l64 -45z" />
    <glyph glyph-name="Japan1.9794" 
d="M758 1677v-106h-402l-10 -207q-3 -39 -10 -92q30 40 79 64t105 24q123 0 203 -82t80 -217q0 -146 -88.5 -233t-227.5 -87q-231 0 -297 189l127 43q20 -66 64 -98.5t104 -32.5q79 0 126.5 58t47.5 157q0 95 -44.5 149t-120.5 54q-55 0 -96.5 -30t-63.5 -85l-115 16l25 516
h514zM1858 795v-97q-130 -194 -197.5 -385.5t-87.5 -433.5h-156q25 237 99 426.5t208 378.5h-475v111h609zM326 -156l-66 47l1423 1819l64 -45z" />
    <glyph glyph-name="Japan1.9795" 
d="M809 1554l-127 -45q-36 86 -129 86q-200 0 -209 -358q82 119 223 119q116 0 189 -79.5t73 -213.5q0 -145 -83.5 -233.5t-215.5 -88.5q-146 0 -231.5 110t-85.5 329q0 262 90 390t254 128q180 0 252 -144zM346 1130q0 -145 49 -215.5t133 -70.5q76 0 120 56t44 159
q0 96 -42 148.5t-115 52.5q-53 0 -103 -34t-86 -96zM1858 795v-97q-130 -194 -197.5 -385.5t-87.5 -433.5h-156q25 237 99 426.5t208 378.5h-475v111h609zM326 -156l-66 47l1423 1819l64 -45z" />
    <glyph glyph-name="Japan1.9796" 
d="M594 1688v-824h178v-102h-500v102h193v697q-69 -52 -189 -91l-22 107q126 41 231 111h109zM1649 367q115 -47 163 -105t48 -147q0 -115 -88.5 -185.5t-231.5 -70.5q-147 0 -233 67t-86 185q0 79 49 134t157 103q-99 43 -140.5 97.5t-41.5 134.5q0 102 81.5 168.5
t211.5 66.5q131 0 214 -64t83 -165q0 -76 -45.5 -129t-140.5 -90zM1532 420l31 -14q80 35 111.5 74t31.5 102q0 62 -46 98.5t-122 36.5q-73 0 -116.5 -36.5t-43.5 -98.5q0 -55 32 -90t122 -72zM1548 291l-32 14q-89 -40 -126.5 -83t-37.5 -105q0 -71 50.5 -114.5
t135.5 -43.5q88 0 138 40.5t50 111.5q0 59 -37.5 97.5t-140.5 82.5zM367 -156l-66 47l1423 1819l64 -45z" />
    <glyph glyph-name="Japan1.9797" 
d="M324 1466l-125 39q68 193 297 193q130 0 211 -65t81 -167q0 -81 -51 -136.5t-141 -74.5v-6q104 -22 158.5 -82t54.5 -153q0 -122 -86 -196.5t-227 -74.5q-122 0 -199.5 47.5t-116.5 149.5l129 39q41 -133 189 -133q76 0 123 46t47 122q0 85 -53.5 131.5t-161.5 46.5h-74
v106h65q100 0 152.5 42t52.5 118q0 65 -43 102t-112 37q-131 0 -170 -131zM1649 367q115 -47 163 -105t48 -147q0 -115 -88.5 -185.5t-231.5 -70.5q-147 0 -233 67t-86 185q0 79 49 134t157 103q-99 43 -140.5 97.5t-41.5 134.5q0 102 81.5 168.5t211.5 66.5q131 0 214 -64
t83 -165q0 -76 -45.5 -129t-140.5 -90zM1532 420l31 -14q80 35 111.5 74t31.5 102q0 62 -46 98.5t-122 36.5q-73 0 -116.5 -36.5t-43.5 -98.5q0 -55 32 -90t122 -72zM1548 291l-32 14q-89 -40 -126.5 -83t-37.5 -105q0 -71 50.5 -114.5t135.5 -43.5q88 0 138 40.5t50 111.5
q0 59 -37.5 97.5t-140.5 82.5zM346 -156l-65 47l1423 1819l63 -45z" />
    <glyph glyph-name="Japan1.9798" 
d="M758 1677v-106h-402l-10 -207q-3 -39 -10 -92q30 40 79 64t105 24q123 0 203 -82t80 -217q0 -146 -88.5 -233t-227.5 -87q-231 0 -297 189l127 43q20 -66 64 -98.5t104 -32.5q79 0 126.5 58t47.5 157q0 95 -44.5 149t-120.5 54q-55 0 -96.5 -30t-63.5 -85l-115 16l25 516
h514zM1649 367q115 -47 163 -105t48 -147q0 -115 -88.5 -185.5t-231.5 -70.5q-147 0 -233 67t-86 185q0 79 49 134t157 103q-99 43 -140.5 97.5t-41.5 134.5q0 102 81.5 168.5t211.5 66.5q131 0 214 -64t83 -165q0 -76 -45.5 -129t-140.5 -90zM1532 420l31 -14
q80 35 111.5 74t31.5 102q0 62 -46 98.5t-122 36.5q-73 0 -116.5 -36.5t-43.5 -98.5q0 -55 32 -90t122 -72zM1548 291l-32 14q-89 -40 -126.5 -83t-37.5 -105q0 -71 50.5 -114.5t135.5 -43.5q88 0 138 40.5t50 111.5q0 59 -37.5 97.5t-140.5 82.5zM346 -156l-65 47
l1423 1819l63 -45z" />
    <glyph glyph-name="Japan1.9799" 
d="M1618 367q115 -47 163 -105t48 -147q0 -115 -88.5 -185.5t-231.5 -70.5q-147 0 -233 67t-86 185q0 78 49 133.5t158 103.5q-99 43 -141 97.5t-42 134.5q0 102 81.5 168.5t211.5 66.5q131 0 214 -64t83 -165q0 -76 -45.5 -129t-140.5 -90zM1501 420l31 -14q80 35 111.5 74
t31.5 102q0 62 -46 98.5t-122 36.5q-73 0 -116 -36t-43 -99q0 -56 31.5 -90.5t121.5 -71.5zM1518 291l-33 14q-89 -40 -126.5 -83t-37.5 -105q0 -71 50.5 -114.5t135.5 -43.5q88 0 138.5 40.5t50.5 111.5q0 59 -37.5 97.5t-140.5 82.5zM858 1677v-96
q-130 -194 -197.5 -385.5t-87.5 -433.5h-155q25 237 99 426.5t208 378.5h-475v110h608zM295 -156l-66 47l1424 1819l63 -45z" />
    <glyph glyph-name="Japan1.9800" unicode="&#x2151;" 
d="M594 1688v-824h178v-102h-500v102h193v697q-69 -52 -189 -91l-22 107q126 41 231 111h109zM1247 -2l127 47q18 -43 52 -64.5t75 -21.5q202 0 205 360q-72 -118 -217 -118q-119 0 -193.5 80t-74.5 213q0 144 82.5 231.5t216.5 87.5q147 0 231 -109t84 -329
q0 -262 -87.5 -389t-248.5 -127q-185 0 -252 139zM1702 426q-2 140 -47 213.5t-131 73.5q-80 0 -123 -57.5t-43 -159.5q0 -93 44 -145t118 -52q113 0 182 127zM356 -156l-65 47l1423 1819l64 -45z" />
    <glyph glyph-name="Japan1.9801" 
d="M324 1417l-131 27q23 122 103.5 187t201.5 65q131 0 212 -65t81 -179q0 -85 -41 -147.5t-166 -163.5q-107 -85 -165 -147t-93 -126h469v-106h-613v94q47 90 117 172t180 174q102 87 136 138.5t34 111.5q0 66 -41 103.5t-110 37.5q-71 0 -116.5 -44.5t-57.5 -131.5z
M1247 -2l127 47q18 -43 52 -64.5t75 -21.5q202 0 205 360q-72 -118 -217 -118q-119 0 -193.5 80t-74.5 213q0 144 82.5 231.5t216.5 87.5q147 0 231 -109t84 -329q0 -262 -87.5 -389t-248.5 -127q-185 0 -252 139zM1702 426q-2 140 -47 213.5t-131 73.5q-80 0 -123 -57.5
t-43 -159.5q0 -93 44 -145t118 -52q113 0 182 127zM346 -156l-65 47l1423 1819l63 -45z" />
    <glyph glyph-name="Japan1.9802" 
d="M690 1690v-613h139v-100h-139v-215h-123v215h-395v94l348 619h170zM567 1077v297q0 105 6 219h-14q-61 -134 -92 -188l-180 -328h280zM1247 -2l127 47q18 -43 52 -64.5t75 -21.5q202 0 205 360q-72 -118 -217 -118q-119 0 -193.5 80t-74.5 213q0 144 82.5 231.5
t216.5 87.5q147 0 231 -109t84 -329q0 -262 -87.5 -389t-248.5 -127q-185 0 -252 139zM1702 426q-2 140 -47 213.5t-131 73.5q-80 0 -123 -57.5t-43 -159.5q0 -93 44 -145t118 -52q113 0 182 127zM346 -156l-65 47l1423 1819l63 -45z" />
    <glyph glyph-name="Japan1.9803" 
d="M758 1677v-106h-402l-10 -207q-3 -39 -10 -92q30 40 79 64t105 24q123 0 203 -82t80 -217q0 -146 -88.5 -233t-227.5 -87q-231 0 -297 189l127 43q20 -66 64 -98.5t104 -32.5q79 0 126.5 58t47.5 157q0 95 -44.5 149t-120.5 54q-55 0 -96.5 -30t-63.5 -85l-115 16l25 516
h514zM1247 -2l127 47q18 -43 52 -64.5t75 -21.5q202 0 205 360q-72 -118 -217 -118q-119 0 -193.5 80t-74.5 213q0 144 82.5 231.5t216.5 87.5q147 0 231 -109t84 -329q0 -262 -87.5 -389t-248.5 -127q-185 0 -252 139zM1702 426q-2 140 -47 213.5t-131 73.5
q-80 0 -123 -57.5t-43 -159.5q0 -93 44 -145t118 -52q113 0 182 127zM346 -156l-65 47l1423 1819l63 -45z" />
    <glyph glyph-name="Japan1.9804" 
d="M858 1677v-96q-130 -194 -197.5 -385.5t-87.5 -433.5h-155q25 237 99 426.5t208 378.5h-475v110h608zM1217 -2l126 47q18 -43 52 -64.5t75 -21.5q202 0 205 360q-72 -118 -217 -118q-119 0 -193.5 80t-74.5 213q0 144 82.5 231.5t216.5 87.5q147 0 231 -109t84 -329
q0 -262 -87.5 -389t-248.5 -127q-184 0 -251 139zM1671 426q-2 140 -47 213.5t-131 73.5q-80 0 -123 -57.5t-43 -159.5q0 -93 44 -145t118 -52q113 0 182 127zM297 -156l-66 47l1424 1819l63 -45z" />
    <glyph glyph-name="Japan1.9805" 
d="M621 1249q115 -47 162.5 -105t47.5 -147q0 -115 -88 -185.5t-231 -70.5q-147 0 -233 67t-86 185q0 79 49 134.5t157 103.5q-99 43 -140.5 97t-41.5 134q0 102 82 169t211 67q131 0 214 -64.5t83 -165.5q0 -76 -45.5 -129t-140.5 -90zM504 1303l31 -15q80 35 111.5 74
t31.5 102q0 62 -46 98.5t-122 36.5q-73 0 -116.5 -36.5t-43.5 -98.5q0 -55 32 -89t122 -72zM520 1174l-33 14q-88 -40 -125.5 -83t-37.5 -106q0 -71 50 -114t136 -43q88 0 138 40.5t50 110.5q0 59 -37.5 98t-140.5 83zM1247 -2l127 47q18 -43 52 -64.5t75 -21.5
q202 0 205 360q-72 -118 -217 -118q-119 0 -193.5 80t-74.5 213q0 144 82.5 231.5t216.5 87.5q147 0 231 -109t84 -329q0 -262 -87.5 -389t-248.5 -127q-185 0 -252 139zM1702 426q-2 140 -47 213.5t-131 73.5q-80 0 -123 -57.5t-43 -159.5q0 -93 44 -145t118 -52
q113 0 182 127zM346 -156l-65 47l1423 1819l63 -45z" />
    <glyph glyph-name="Japan1.9806" unicode="&#x2152;" 
d="M526 1688v-824h179v-102h-500v102h192v697q-70 -52 -188 -91l-23 107q128 41 232 111h108zM1667 758q127 0 190.5 -106t63.5 -339q0 -236 -64.5 -344t-193.5 -108q-127 0 -190.5 108.5t-63.5 341.5q0 232 65 339.5t193 107.5zM1667 662q-67 0 -100 -79t-33 -270
q0 -131 15 -210.5t43 -112.5t71 -33q66 0 99.5 81.5t33.5 274.5q0 191 -31.5 270t-97.5 79zM1241 750v-779h121v-92h-365v92h127v660q-44 -39 -127 -78l-22 96q101 43 164 101h102zM252 -156l-64 45l1340 1821l65 -45z" />
    <glyph glyph-name="Japan1.9807" 
d="M276 1466l-124 39q68 193 297 193q130 0 211 -65t81 -167q0 -81 -51 -136.5t-141 -74.5v-6q104 -22 158.5 -82t54.5 -153q0 -122 -86 -196.5t-227 -74.5q-122 0 -199.5 47.5t-116.5 149.5l129 39q41 -133 189 -133q76 0 123 46t47 122q0 85 -53.5 131.5t-161.5 46.5h-74
v106h65q100 0 152.5 42t52.5 118q0 65 -43.5 102t-112.5 37q-131 0 -170 -131zM1675 758q127 0 190.5 -106t63.5 -339q0 -236 -64.5 -344t-193.5 -108q-127 0 -190.5 108.5t-63.5 341.5q0 232 65 339.5t193 107.5zM1675 662q-67 0 -100 -79t-33 -270q0 -131 15 -210.5
t43 -112.5t71 -33q66 0 99.5 81.5t33.5 274.5q0 191 -31.5 270t-97.5 79zM1249 750v-779h121v-92h-364v92h127v660q-44 -39 -127 -78l-23 96q101 43 164 101h102zM258 -156l-63 45l1339 1821l65 -45z" />
    <glyph glyph-name="Japan1.9808" 
d="M809 1677v-96q-130 -194 -197.5 -385.5t-87.5 -433.5h-155q25 237 99 426.5t208 378.5h-475v110h608zM1675 758q127 0 190.5 -106t63.5 -339q0 -236 -64.5 -344t-193.5 -108q-127 0 -190.5 108.5t-63.5 341.5q0 232 65 339.5t193 107.5zM1675 662q-67 0 -100 -79
t-33 -270q0 -131 15 -210.5t43 -112.5t71 -33q66 0 99.5 81.5t33.5 274.5q0 191 -31.5 270t-97.5 79zM1249 750v-779h121v-92h-364v92h127v660q-44 -39 -127 -78l-23 96q101 43 164 101h102zM238 -156l-64 45l1339 1821l66 -45z" />
    <glyph glyph-name="Japan1.9809" 
d="M1675 758q127 0 190.5 -106t63.5 -339q0 -236 -64.5 -344t-193.5 -108q-127 0 -190.5 108.5t-63.5 341.5q0 232 65 339.5t193 107.5zM1675 662q-67 0 -100 -79t-33 -270q0 -131 15 -210.5t43 -112.5t71 -33q66 0 99.5 81.5t33.5 274.5q0 191 -31.5 270t-97.5 79z
M1249 750v-779h121v-92h-364v92h127v660q-44 -39 -127 -78l-23 96q101 43 164 101h102zM168 883l127 47q18 -43 52 -64.5t75 -21.5q202 0 205 360q-73 -119 -217 -119q-119 0 -194 80t-75 213q0 144 82.5 232t216.5 88q147 0 231.5 -109t84.5 -329q0 -263 -88 -390
t-248 -127q-185 0 -252 140zM623 1311q-2 140 -47.5 213t-131.5 73q-80 0 -122.5 -57.5t-42.5 -159.5q0 -93 43.5 -144.5t117.5 -51.5q114 0 183 127zM258 -156l-63 45l1339 1821l65 -45z" />
    <glyph glyph-name="Japan1.9810" 
d="M522 1688v-824h178v-102h-499v102h192v697q-70 -52 -188 -91l-23 107q128 41 232 111h108zM1251 750v-779h121v-92h-364v92h127v660q-44 -39 -127 -78l-23 96q101 43 164 101h102zM1823 750v-779h121v-92h-367v92h129v660q-44 -39 -127 -78l-23 96q101 43 164 101h103z
M250 -156l-64 45l1340 1821l65 -45z" />
    <glyph glyph-name="Japan1.9811" 
d="M274 1417l-131 27q23 122 103.5 187t202.5 65q131 0 211.5 -64.5t80.5 -179.5q0 -85 -40.5 -147.5t-165.5 -163.5q-108 -86 -166 -148t-93 -125h469v-106h-612v94q47 90 117 172t180 174q102 87 136 138.5t34 111.5q0 66 -41 103.5t-110 37.5q-71 0 -117 -44.5
t-58 -131.5zM1262 750v-779h120v-92h-364v92h127v660q-44 -39 -127 -78l-23 96q101 43 164 101h103zM1833 750v-779h121v-92h-367v92h129v660q-44 -39 -127 -78l-22 96q101 43 164 101h102zM283 -156l-64 45l1340 1821l65 -45z" />
    <glyph glyph-name="Japan1.9812" 
d="M276 1466l-124 39q68 193 297 193q130 0 211 -65t81 -167q0 -81 -51 -136.5t-141 -74.5v-6q104 -22 158.5 -82t54.5 -153q0 -122 -86 -196.5t-227 -74.5q-122 0 -199.5 47.5t-116.5 149.5l129 39q41 -133 189 -133q76 0 123 46t47 122q0 85 -53.5 131.5t-161.5 46.5h-74
v106h65q100 0 152.5 42t52.5 118q0 65 -43.5 102t-112.5 37q-131 0 -170 -131zM258 -156l-63 45l1339 1821l65 -45zM1262 750v-779h120v-92h-364v92h127v660q-44 -39 -127 -78l-23 96q101 43 164 101h103zM1833 750v-779h121v-92h-367v92h129v660q-44 -39 -127 -78l-22 96
q101 43 164 101h102z" />
    <glyph glyph-name="Japan1.9813" 
d="M631 1690v-613h139v-100h-139v-215h-123v215h-395v94l348 619h170zM508 1077v297q0 105 6 219h-14q-61 -134 -92 -188l-181 -328h281zM260 -156l-63 45l1339 1821l66 -45zM1262 750v-779h120v-92h-364v92h127v660q-44 -39 -127 -78l-23 96q101 43 164 101h103zM1833 750
v-779h121v-92h-367v92h129v660q-44 -39 -127 -78l-22 96q101 43 164 101h102z" />
    <glyph glyph-name="Japan1.9814" 
d="M709 1677v-106h-402l-10 -207q-3 -39 -10 -92q30 40 79 64t105 24q123 0 203 -82t80 -217q0 -146 -88.5 -233t-227.5 -87q-231 0 -297 189l127 43q20 -66 64 -98.5t104 -32.5q79 0 126.5 58t47.5 157q0 94 -45 148.5t-121 54.5q-55 0 -96 -30t-63 -85l-115 16l25 516h514
zM258 -156l-63 45l1339 1821l65 -45zM1262 750v-779h120v-92h-364v92h127v660q-44 -39 -127 -78l-23 96q101 43 164 101h103zM1833 750v-779h121v-92h-367v92h129v660q-44 -39 -127 -78l-22 96q101 43 164 101h102z" />
    <glyph glyph-name="Japan1.9815" 
d="M737 1554l-127 -45q-36 86 -129 86q-200 0 -209 -358q82 119 224 119q116 0 189 -79.5t73 -213.5q0 -145 -83.5 -233.5t-215.5 -88.5q-146 0 -232 110t-86 329q0 262 90 390t254 128q180 0 252 -144zM274 1130q0 -145 49.5 -215.5t133.5 -70.5q76 0 120 56t44 159
q0 96 -42.5 148.5t-115.5 52.5q-53 0 -103 -34t-86 -96zM260 -156l-63 45l1339 1821l66 -45zM1262 750v-779h120v-92h-364v92h127v660q-44 -39 -127 -78l-23 96q101 43 164 101h103zM1833 750v-779h121v-92h-367v92h129v660q-44 -39 -127 -78l-22 96q101 43 164 101h102z
" />
    <glyph glyph-name="Japan1.9816" 
d="M809 1677v-96q-130 -194 -197.5 -385.5t-87.5 -433.5h-155q25 237 99 426.5t208 378.5h-475v110h608zM219 -156l-63 45l1339 1821l66 -45zM1262 750v-779h120v-92h-364v92h127v660q-44 -39 -127 -78l-23 96q101 43 164 101h103zM1833 750v-779h121v-92h-367v92h129v660
q-44 -39 -127 -78l-22 96q101 43 164 101h102z" />
    <glyph glyph-name="Japan1.9817" 
d="M569 1249q115 -47 163 -105t48 -147q0 -115 -88 -185.5t-231 -70.5q-147 0 -233.5 67t-86.5 185q0 79 49 134.5t158 103.5q-99 43 -140.5 97t-41.5 134q0 102 82 169t211 67q131 0 214 -64.5t83 -165.5q0 -76 -46 -129t-141 -90zM453 1303l30 -15q81 35 112.5 74.5
t31.5 101.5t-46 98.5t-122 36.5q-73 0 -116.5 -36.5t-43.5 -98.5q0 -55 32 -89t122 -72zM469 1174l-33 14q-88 -40 -126 -83t-38 -106q0 -71 50.5 -114t136.5 -43q88 0 138 40.5t50 110.5q0 59 -37.5 98t-140.5 83zM1270 750v-779h121v-92h-365v92h127v660q-44 -39 -127 -78
l-22 96q99 42 163 101h103zM1841 750v-779h121v-92h-367v92h129v660q-44 -39 -127 -78l-22 96q101 43 164 101h102zM279 -156l-64 45l1339 1821l66 -45z" />
    <glyph glyph-name="Japan1.9818" 
d="M178 883l127 47q18 -43 52 -64.5t75 -21.5q202 0 205 360q-73 -119 -217 -119q-119 0 -193.5 80t-74.5 213q0 144 82.5 232t216.5 88q147 0 231 -109t84 -329q0 -263 -88 -390t-248 -127q-185 0 -252 140zM633 1311q-2 140 -47 213t-131 73q-80 0 -123 -57.5t-43 -159.5
q0 -93 44 -144.5t118 -51.5q113 0 182 127zM260 -156l-63 45l1339 1821l66 -45zM1262 750v-779h120v-92h-364v92h127v660q-44 -39 -127 -78l-23 96q101 43 164 101h103zM1833 750v-779h121v-92h-367v92h129v660q-44 -39 -127 -78l-22 96q101 43 164 101h102z" />
    <glyph glyph-name="Japan1.9819" 
d="M1311 750v-779h121v-92h-365v92h127v660q-44 -39 -127 -78l-23 96q101 43 164 101h103zM1882 750v-779h121v-92h-367v92h129v660q-44 -39 -127 -78l-22 96q101 43 164 101h102zM727 1694q127 0 190.5 -106t63.5 -339q0 -236 -64.5 -344t-193.5 -108q-127 0 -190.5 108.5
t-63.5 341.5q0 232 65 339.5t193 107.5zM727 1597q-67 0 -100 -78.5t-33 -269.5q0 -131 15 -210.5t43 -112.5t71 -33q66 0 99.5 81.5t33.5 274.5q0 191 -31.5 269.5t-97.5 78.5zM356 -156l-63 45l1339 1821l66 -45zM301 1686v-779h121v-92h-365v92h127v660q-44 -39 -127 -78
l-22 96q101 43 164 101h102z" />
    <glyph glyph-name="Japan1.9820" 
d="M522 1688v-824h178v-102h-499v102h192v697q-70 -52 -188 -91l-23 107q128 41 232 111h108zM1556 498l-116 26q13 113 78 174.5t168 61.5q108 0 172.5 -61t64.5 -167q0 -77 -34 -138t-130 -154q-83 -83 -127.5 -144t-68.5 -121h364v-96h-489v86q62 161 225 332
q81 84 107 131t26 104q0 62 -29 97t-81 35q-113 0 -130 -166zM1247 750v-779h121v-92h-364v92h126v660q-45 -40 -126 -78l-23 96q101 43 164 101h102zM250 -156l-64 45l1340 1821l65 -45z" />
    <glyph glyph-name="Japan1.9821" 
d="M711 1677v-106h-402l-10 -207q-3 -39 -10 -92q30 40 79 64t105 24q123 0 203 -82t80 -217q0 -146 -88.5 -233t-227.5 -87q-231 0 -297 189l127 43q20 -66 64 -98.5t104 -32.5q79 0 126.5 58t47.5 157q0 94 -45 148.5t-121 54.5q-55 0 -96 -30t-63 -85l-115 16l25 516h514
zM1565 498l-117 26q13 113 78 174.5t168 61.5q108 0 172.5 -61t64.5 -167q0 -77 -34 -138t-130 -154q-83 -83 -127.5 -144t-68.5 -121h364v-96h-489v86q62 161 225 332q81 84 107 131t26 104q0 62 -29 97t-81 35q-112 0 -129 -166zM1255 750v-779h121v-92h-364v92h127v660
q-44 -39 -127 -78l-23 96q101 43 164 101h102zM260 -156l-63 45l1339 1821l66 -45z" />
    <glyph glyph-name="Japan1.9822" 
d="M797 1677v-96q-130 -194 -197.5 -385.5t-87.5 -433.5h-156q25 237 99.5 426t208.5 379h-476v110h609zM1556 498l-116 26q13 113 78 174.5t168 61.5q108 0 172.5 -61t64.5 -167q0 -77 -34 -138t-130 -154q-83 -83 -127.5 -144t-68.5 -121h364v-96h-489v86q62 161 225 332
q81 84 107 131t26 104q0 62 -29 97t-81 35q-113 0 -130 -166zM1247 750v-779h121v-92h-364v92h126v660q-45 -40 -126 -78l-23 96q101 43 164 101h102zM250 -156l-64 45l1340 1821l65 -45z" />
    <glyph glyph-name="Japan1.9823" 
d="M1630 498l-117 26q13 113 78 174.5t168 61.5q108 0 173 -61t65 -167q0 -77 -34 -138t-130 -154q-83 -83 -128 -144t-69 -121h365v-96h-490v86q32 84 85.5 162t140.5 170q81 84 107 131t26 104q0 62 -29.5 97t-81.5 35q-112 0 -129 -166zM1321 750v-779h121v-92h-365v92
h127v660q-44 -39 -127 -78l-22 96q101 43 164 101h102zM412 -156l-64 45l1340 1821l65 -45zM289 1686v-779h121v-92h-365v92h127v660q-44 -39 -127 -78l-22 96q99 42 163 101h103zM860 1686v-779h121v-92h-367v92h129v660q-44 -39 -127 -78l-22 96q101 43 164 101h102z" />
    <glyph glyph-name="Japan1.9824" 
d="M135 -156l-65 41l1108 1825l67 -37zM948 752v-785h101v-88h-306v88h107v664q-39 -37 -107 -76l-20 92q84 41 139 105h86zM1266 758q70 0 111.5 -39.5t63 -137.5t21.5 -268t-21.5 -269.5t-63.5 -141t-113 -41.5q-70 0 -112 41t-63.5 140t-21.5 269q0 169 22 268t64.5 139
t112.5 40zM1266 668q-34 0 -53.5 -30.5t-29 -108t-9.5 -216.5q0 -137 9.5 -216t28.5 -111.5t52 -32.5q34 0 53 32t28 109.5t9 216.5t-9 217t-27.5 109t-51.5 31zM1761 758q70 0 112 -39.5t63.5 -138t21.5 -267.5q0 -170 -21.5 -269.5t-64 -141t-113.5 -41.5q-70 0 -111.5 41
t-63 140t-21.5 269q0 169 22 268t64 139t112 40zM1761 668q-34 0 -53.5 -30.5t-29 -108t-9.5 -216.5q0 -137 9.5 -216t28.5 -111.5t52 -32.5q34 0 53 32t28 109.5t9 216.5t-9 217t-27.5 109t-51.5 31zM385 1686v-779h121v-92h-365v92h127v660q-44 -39 -127 -78l-22 96
q101 43 164 101h102z" />
    <glyph glyph-name="Japan1.9825" 
d="M1026 1737q315 0 315 -406q0 -208 -82.5 -309.5t-236.5 -101.5q-315 0 -315 409q0 207 82.5 307.5t236.5 100.5zM1026 1638q-92 0 -137.5 -72t-46.5 -235q-1 -164 44 -238.5t136 -74.5q92 0 138 75t46 238q0 164 -44 235.5t-136 71.5zM125 815h1798v-74h-1798v74z
M836 434l-121 35q32 82 109 125t190 43q131 0 212 -54.5t81 -144.5q0 -73 -52 -119.5t-145 -60.5v-6q219 -38 219 -199q0 -106 -86 -169.5t-229 -63.5q-125 0 -202.5 41t-117.5 129l125 35q49 -109 195 -109q79 0 127.5 37.5t48.5 97.5q0 74 -52.5 110t-166.5 36h-78v100h70
q208 0 208 131q0 56 -42.5 85.5t-116.5 29.5q-130 0 -176 -109z" />
    <glyph glyph-name="Japan1.9826" 
d="M1090 1733v-697h180v-96h-500v96h197v580q-80 -48 -193 -78l-22 100q117 28 235 95h103zM844 397l-125 25q21 103 102 159t201 56q132 0 212.5 -55.5t80.5 -153.5q0 -78 -42.5 -133t-166.5 -133q-109 -72 -166 -120.5t-90 -100.5h469v-101h-610v88q45 77 116 146t185 145
q103 71 136.5 112.5t33.5 94.5q0 54 -42.5 84.5t-113.5 30.5q-72 0 -118.5 -37t-61.5 -107zM125 815h1798v-74h-1798v74z" />
    <glyph glyph-name="Japan1.9827" 
d="M1090 1733v-697h180v-96h-500v96h197v580q-80 -48 -193 -78l-22 100q117 28 235 95h103zM836 434l-121 35q32 82 109 125t190 43q131 0 212 -54.5t81 -144.5q0 -73 -52 -119.5t-145 -60.5v-6q219 -38 219 -199q0 -106 -86 -169.5t-229 -63.5q-125 0 -202.5 41t-117.5 129
l125 35q49 -109 195 -109q79 0 127.5 37.5t48.5 97.5q0 74 -52.5 110t-166.5 36h-78v100h70q208 0 208 131q0 56 -42.5 85.5t-116.5 29.5q-130 0 -176 -109zM125 815h1798v-74h-1798v74z" />
    <glyph glyph-name="Japan1.9828" 
d="M836 434l-121 35q32 82 109 125t190 43q131 0 212 -54.5t81 -144.5q0 -73 -52 -119.5t-145 -60.5v-6q219 -38 219 -199q0 -106 -86 -169.5t-229 -63.5q-125 0 -202.5 41t-117.5 129l125 35q49 -109 195 -109q79 0 127.5 37.5t48.5 97.5q0 74 -52.5 110t-166.5 36h-78v100
h70q208 0 208 131q0 56 -42.5 85.5t-116.5 29.5q-130 0 -176 -109zM844 1497l-125 25q21 103 102 159t201 56q132 0 212.5 -55.5t80.5 -153.5q0 -78 -42.5 -133t-166.5 -133q-108 -71 -165.5 -120.5t-90.5 -101.5h469v-100h-610v88q45 77 116 146t185 145
q103 71 136.5 112.5t33.5 94.5t-42.5 83.5t-113.5 30.5q-72 0 -118.5 -36.5t-61.5 -106.5zM125 815h1798v-74h-1798v74z" />
    <glyph glyph-name="Japan1.9829" 
d="M1090 1733v-697h180v-96h-500v96h197v580q-80 -48 -193 -78l-22 100q117 28 235 95h103zM1165 633v-518h142v-95h-142v-180h-118v180h-404v86l356 527h166zM1047 115v260q0 27 2 82.5t2 85.5h-13q-49 -86 -92 -150l-188 -278h289zM125 815h1798v-74h-1798v74z" />
    <glyph glyph-name="Japan1.9830" 
d="M836 1534l-121 35q32 82 109 125t190 43q131 0 212 -54.5t81 -144.5q0 -73 -52 -119.5t-145 -60.5v-6q219 -38 219 -199q0 -106 -86 -169.5t-229 -63.5q-125 0 -202.5 41t-117.5 129l125 34q48 -108 195 -108q79 0 127.5 37.5t48.5 97.5q0 74 -52.5 109.5t-166.5 35.5
h-78v101h70q208 0 208 131q0 56 -42.5 85t-116.5 29q-131 0 -176 -108zM1165 633v-518h142v-95h-142v-180h-118v180h-404v86l356 527h166zM1047 115v260q0 27 2 82.5t2 85.5h-13q-49 -86 -92 -150l-188 -278h289zM125 815h1798v-74h-1798v74z" />
    </font>
</defs>
</svg>
