<svg xmlns="http://www.w3.org/2000/svg" width="29.875" height="29.875" viewBox="0 0 29.875 29.875">
  <path id="Icon_awesome-arrow-circle-right" data-name="Icon awesome-arrow-circle-right" d="M15.5.563A14.938,14.938,0,1,1,.563,15.5,14.935,14.935,0,0,1,15.5.563ZM13.759,9.212l4.548,4.361h-11a1.442,1.442,0,0,0-1.446,1.446v.964a1.442,1.442,0,0,0,1.446,1.446h11l-4.548,4.361a1.447,1.447,0,0,0-.024,2.066l.663.657a1.44,1.44,0,0,0,2.042,0l7.993-7.987a1.44,1.44,0,0,0,0-2.042l-7.993-8a1.44,1.44,0,0,0-2.042,0l-.663.657a1.454,1.454,0,0,0,.024,2.072Z" transform="translate(-0.563 -0.563)" fill="#fff"/>
</svg>
