<?xml version="1.0" encoding="UTF-8"?>
<svg width="21px" height="21px" viewBox="0 0 21 21" version="1.1" xmlns="http://www.w3.org/2000/svg" xmlns:xlink="http://www.w3.org/1999/xlink">
    <title>maki:cross</title>
    <g id="Page-1" stroke="none" stroke-width="1" fill="none" fill-rule="evenodd">
        <g id="maki:cross">
            <rect id="ViewBox" x="0" y="0" width="21" height="21"></rect>
            <path d="M3.696,1.778 L10.5,8.582 L17.276,1.806 C17.5159448,1.55060434 17.8495939,1.40400097 18.2,1.4 C18.9731986,1.4 19.6,2.02680135 19.6,2.8 C19.6065971,3.14690795 19.4698481,3.48118325 19.222,3.724 L12.376,10.5 L19.222,17.346 C19.4527411,17.5717374 19.5880445,17.877423 19.6,18.2 C19.6,18.9731986 18.9731986,19.6 18.2,19.6 C17.8392518,19.6149665 17.4887854,19.4778275 17.234,19.222 L10.5,12.418 L3.71,19.208 C3.47107259,19.4547819 3.14346883,19.5959035 2.8,19.6 C2.02680135,19.6 1.4,18.9731986 1.4,18.2 C1.39340293,17.853092 1.53015191,17.5188167 1.778,17.276 L8.624,10.5 L1.778,3.654 C1.54725893,3.42826257 1.41195546,3.12257696 1.4,2.8 C1.4,2.02680135 2.02680135,1.4 2.8,1.4 C3.136,1.4042 3.458,1.54 3.696,1.778 Z" id="Path" fill="#FFFFFF" fill-rule="nonzero"></path>
        </g>
    </g>
</svg>