<svg xmlns="http://www.w3.org/2000/svg" width="12" height="12" viewBox="0 0 12 12">
  <path id="Icon_awesome-arrow-circle-right" data-name="Icon awesome-arrow-circle-right" d="M6.562.562a6,6,0,1,1-6,6A6,6,0,0,1,6.562.562Zm-.7,3.474L7.69,5.788H3.272a.579.579,0,0,0-.581.581v.387a.579.579,0,0,0,.581.581H7.69L5.863,9.088a.581.581,0,0,0-.01.83l.266.264a.578.578,0,0,0,.82,0l3.21-3.208a.578.578,0,0,0,0-.82L6.94,2.941a.578.578,0,0,0-.82,0L5.854,3.2a.584.584,0,0,0,.01.832Z" transform="translate(-0.563 -0.563)" fill="#009b94"/>
</svg>
