<svg xmlns="http://www.w3.org/2000/svg" width="14.415" height="14.415" viewBox="0 0 14.415 14.415">
  <g id="Icon_feather-globe" data-name="Icon feather-globe" transform="translate(-1.5 -1.5)">
    <path id="パス_1" data-name="パス 1" d="M8.708,1.5a7.209,7.209,0,0,1,2.806,13.849A7.209,7.209,0,0,1,5.9,2.067,7.163,7.163,0,0,1,8.708,1.5Zm0,13.1a5.9,5.9,0,1,0-4.17-1.727A5.859,5.859,0,0,0,8.708,14.6Z" transform="translate(0 0)" fill="#009b94"/>
    <path id="パス_2" data-name="パス 2" d="M15.26,17.768H2.155a.634.634,0,1,1,0-1.268h13.1a.635.635,0,1,1,0,1.268Z" transform="translate(0 -8.427)" fill="#009b94"/>
    <path id="パス_3" data-name="パス 3" d="M13.671,1.5a.625.625,0,0,1,.468.213,10.871,10.871,0,0,1,2.7,6.981q0,.014,0,.027a10.871,10.871,0,0,1-2.7,6.981.621.621,0,0,1-.936,0,10.871,10.871,0,0,1-2.7-6.981q0-.014,0-.027a10.871,10.871,0,0,1,2.7-6.981A.625.625,0,0,1,13.671,1.5Zm1.9,7.208a9.564,9.564,0,0,0-1.9-5.536,9.564,9.564,0,0,0-1.9,5.536,9.564,9.564,0,0,0,1.9,5.536A9.564,9.564,0,0,0,15.573,8.708Z" transform="translate(-4.963 0)" fill="#009b94"/>
  </g>
</svg>
