<svg xmlns="http://www.w3.org/2000/svg" width="16" height="12.8" viewBox="0 0 16 12.8">
  <path id="Icon_awesome-sitemap" data-name="Icon awesome-sitemap" d="M3.2,8.8H.8a.8.8,0,0,0-.8.8V12a.8.8,0,0,0,.8.8H3.2A.8.8,0,0,0,4,12V9.6A.8.8,0,0,0,3.2,8.8Zm-.6-2H7.4V8H8.6V6.8h4.8V8h1.2V6.56a.961.961,0,0,0-.96-.96H8.6V4h1a.8.8,0,0,0,.8-.8V.8A.8.8,0,0,0,9.6,0H6.4a.8.8,0,0,0-.8.8V3.2a.8.8,0,0,0,.8.8h1V5.6H2.36a.961.961,0,0,0-.96.96V8H2.6Zm6.6,2H6.8a.8.8,0,0,0-.8.8V12a.8.8,0,0,0,.8.8H9.2A.8.8,0,0,0,10,12V9.6A.8.8,0,0,0,9.2,8.8Zm6,0H12.8a.8.8,0,0,0-.8.8V12a.8.8,0,0,0,.8.8h2.4A.8.8,0,0,0,16,12V9.6A.8.8,0,0,0,15.2,8.8Z" fill="#009b94"/>
</svg>
