<svg xmlns="http://www.w3.org/2000/svg" width="54.665" height="37" viewBox="0 0 54.665 37">
  <g id="Icon_feather-arrow-right" data-name="Icon feather-arrow-right" transform="translate(-4.836 -3.5)">
    <path id="Union_2" data-name="Union 2" d="M606.86-3070.122a2.135,2.135,0,0,1,0-3.005l11.187-11.247H575.714a2.12,2.12,0,0,1-2.114-2.125,2.12,2.12,0,0,1,2.114-2.126h42.333l-11.187-11.247a2.135,2.135,0,0,1,0-3.005,2.105,2.105,0,0,1,2.989,0l14.766,14.845a2.134,2.134,0,0,1,.207.231l0,.006.024.031.017.023.01.014a2.114,2.114,0,0,1,.293.6h0l.014.048v0c0,.015.008.03.012.045l0,.008.01.042,0,.009.009.042,0,.008c0,.016.006.032.009.048h0a2.147,2.147,0,0,1,0,.751v0c0,.016-.006.032-.009.048l0,.008c0,.015-.006.029-.009.043l0,.008-.01.042,0,.008c0,.015-.008.03-.012.045v0l-.014.048h0a2.109,2.109,0,0,1-.293.6l-.01.014-.017.023-.024.032,0,.005a2.134,2.134,0,0,1-.207.231l-14.766,14.845a2.1,2.1,0,0,1-1.494.622A2.1,2.1,0,0,1,606.86-3070.122Z" transform="translate(-567.264 3108.5)" fill="#969696" stroke="#969696" stroke-linecap="round" stroke-width="3"/>
  </g>
</svg>
