<svg xmlns="http://www.w3.org/2000/svg" width="22.512" height="22.512" viewBox="0 0 22.512 22.512">
  <path id="Icon_awesome-arrow-circle-right" data-name="Icon awesome-arrow-circle-right" d="M11.819.562A11.256,11.256,0,1,1,.562,11.819,11.254,11.254,0,0,1,11.819.562ZM10.507,7.08l3.427,3.286H5.646a1.087,1.087,0,0,0-1.089,1.089v.726a1.087,1.087,0,0,0,1.089,1.089h8.288l-3.427,3.286a1.091,1.091,0,0,0-.018,1.557l.5.495a1.085,1.085,0,0,0,1.539,0L18.55,12.59a1.085,1.085,0,0,0,0-1.539L12.527,5.024a1.085,1.085,0,0,0-1.539,0l-.5.495a1.1,1.1,0,0,0,.018,1.561Z" transform="translate(-0.563 -0.563)" fill="#009b94"/>
</svg>
