<?xml version="1.0" encoding="UTF-8"?>
<svg width="39px" height="35px" viewBox="0 0 39 35" version="1.1" xmlns="http://www.w3.org/2000/svg" xmlns:xlink="http://www.w3.org/1999/xlink">
    <title>Group 10</title>
    <g id="Page-1" stroke="none" stroke-width="1" fill="none" fill-rule="evenodd">
        <g id="Group-10" transform="translate(0.108108, 0.000000)">
            <rect id="Rectangle" fill="#EEEEEE" x="0" y="0" width="38.7837838" height="35" rx="7.2"></rect>
            <g id="gg:menu" transform="translate(10.000000, 11.000000)" fill="#000000" fill-rule="nonzero">
                <g id="Group">
                    <path d="M0,1 C0,0.44771525 0.402943725,0 0.9,0 L17.1,0 C17.5970563,0 18,0.44771525 18,1 C18,1.55228475 17.5970563,2 17.1,2 L0.9,2 C0.402943725,2 0,1.55228475 0,1 Z" id="Path"></path>
                    <path d="M0,6.57565415 C0,6.0233694 0.402943725,5.57565415 0.9,5.57565415 L17.1,5.57565415 C17.5970563,5.57565415 18,6.0233694 18,6.57565415 C18,7.1279389 17.5970563,7.57565415 17.1,7.57565415 L0.9,7.57565415 C0.402943725,7.57565415 0,7.1279389 0,6.57565415 Z" id="Path"></path>
                    <path d="M0.9,11.1513083 C0.402943725,11.1513083 0,11.5990236 0,12.1513083 C0,12.7035931 0.402943725,13.1513083 0.9,13.1513083 L17.1,13.1513083 C17.5970563,13.1513083 18,12.7035931 18,12.1513083 C18,11.5990236 17.5970563,11.1513083 17.1,11.1513083 L0.9,11.1513083 Z" id="Path"></path>
                </g>
            </g>
        </g>
    </g>
</svg>