<svg xmlns="http://www.w3.org/2000/svg" width="17.125" height="17.125" viewBox="0 0 17.125 17.125">
  <path id="Icon_awesome-arrow-circle-right" data-name="Icon awesome-arrow-circle-right" d="M9.125.563A8.563,8.563,0,1,1,.563,9.125,8.561,8.561,0,0,1,9.125.563Zm-1,4.958,2.607,2.5h-6.3a.827.827,0,0,0-.829.829V9.4a.827.827,0,0,0,.829.829h6.3l-2.607,2.5a.83.83,0,0,0-.014,1.184l.38.376a.825.825,0,0,0,1.17,0l4.582-4.578a.825.825,0,0,0,0-1.17L9.664,3.956a.825.825,0,0,0-1.17,0l-.38.376A.834.834,0,0,0,8.127,5.52Z" transform="translate(-0.563 -0.563)" fill="#fff"/>
</svg>
